<?xml version="1.0" encoding="utf-8"?>
<!-- Generator: Adobe Illustrator 24.2.3, SVG Export Plug-In . SVG Version: 6.00 Build 0)  -->
<svg version="1.1" id="Layer_1" xmlns="http://www.w3.org/2000/svg" xmlns:xlink="http://www.w3.org/1999/xlink" x="0px" y="0px"
	 viewBox="0 0 700 700" style="enable-background:new 0 0 700 700;" xml:space="preserve">
<style type="text/css">
	.st0{fill:#212529;}
</style>
<path class="st0" d="M549.6,82.7C496.7,29.7,424.9,0,350,0S203.3,29.7,150.4,82.7c-52.9,52.9-82.7,124.7-82.7,199.6
	S97.5,429,150.4,481.9c52.9,52.9,124.7,82.7,199.6,82.7s146.7-29.7,199.6-82.7c52.9-52.9,82.7-124.7,82.7-199.6
	S602.5,135.6,549.6,82.7L549.6,82.7z M350,536.2c-30.5,0-49.8-46.5-58.5-74.2c-6.8-22.2-11.9-44.8-15.2-67.8h147.4
	c-3.3,23-8.4,45.6-15.2,67.8C399.8,489.7,380.5,536.2,350,536.2z M272.8,367.7c-6-56.8-6-114,0-170.8h154.3
	c3,28.4,4.5,56.9,4.5,85.4c0,28.5-1.5,57-4.5,85.4L272.8,367.7z M94.2,282.3c0-29.1,4.9-58,14.7-85.4h137.4
	c-5.8,56.8-5.8,114,0,170.8H108.9C99.1,340.3,94.2,311.4,94.2,282.3L94.2,282.3z M350,28.4c30.5,0,49.8,46.5,58.5,74.2
	c6.8,22.2,11.9,44.8,15.2,67.8H276.3c3.3-22.9,8.4-45.6,15.2-67.8C300.2,74.9,319.5,28.4,350,28.4z M453.8,196.9h137.4
	c19.6,55.3,19.6,115.5,0,170.8H453.8c2.9-28.4,4.4-56.9,4.3-85.4C458.2,253.8,456.7,225.3,453.8,196.9L453.8,196.9z M580,170.4
	l-129.6,0c-3.5-25.7-9.1-51-16.7-75.8c-6.4-22.4-16.6-43.6-30.2-62.5c38,8.2,73.6,24.9,104.1,48.9C538.3,105,563,135.5,580,170.4
	L580,170.4z M296.4,32.1c-13.6,18.9-23.9,40.1-30.2,62.5c-7.6,24.8-13.1,50.1-16.7,75.8H120c17-34.9,41.8-65.5,72.3-89.4
	C222.9,57,258.5,40.3,296.4,32.1L296.4,32.1z M120,394.2h129.6c3.5,25.7,9.1,51,16.7,75.8c6.4,22.4,16.6,43.6,30.2,62.5
	c-38-8.2-73.6-24.9-104.1-48.9C161.8,459.6,137,429.1,120,394.2L120,394.2z M403.6,532.5c13.6-18.9,23.9-40.1,30.2-62.5
	c7.6-24.8,13.1-50.1,16.7-75.8H580c-17,34.9-41.8,65.5-72.3,89.4C477.1,507.5,441.5,524.3,403.6,532.5L403.6,532.5z"/>
</svg>
