<?xml version="1.0" encoding="utf-8"?>
<!-- Generator: Adobe Illustrator 24.2.3, SVG Export Plug-In . SVG Version: 6.00 Build 0)  -->
<svg version="1.1" id="Layer_1" xmlns="http://www.w3.org/2000/svg" xmlns:xlink="http://www.w3.org/1999/xlink" x="0px" y="0px"
	 viewBox="0 0 14 14" style="enable-background:new 0 0 14 14;" xml:space="preserve">
<style type="text/css">
	.st0{fill:none;stroke:#FA6900;stroke-linecap:round;stroke-linejoin:round;}
</style>
<g>
	<path class="st0" d="M1.5,1h11c0.6,0,1,0.4,1,1v4c0,0.6-0.4,1-1,1h-11c-0.6,0-1-0.4-1-1V2C0.5,1.4,0.9,1,1.5,1z"/>
	<circle class="st0" cx="3.5" cy="4" r="0.5"/>
	<line class="st0" x1="7.5" y1="4" x2="11" y2="4"/>
	<path class="st0" d="M1.5,7c-0.6,0-1,0.4-1,1v4c0,0.6,0.4,1,1,1h11c0.6,0,1-0.4,1-1V8c0-0.6-0.4-1-1-1"/>
	<circle class="st0" cx="3.5" cy="10" r="0.5"/>
	<line class="st0" x1="7.5" y1="10" x2="11" y2="10"/>
</g>
</svg>
