<?xml version="1.0" encoding="utf-8"?>
<!-- Generator: Adobe Illustrator 24.2.3, SVG Export Plug-In . SVG Version: 6.00 Build 0)  -->
<svg version="1.1" id="Layer_1" xmlns="http://www.w3.org/2000/svg" xmlns:xlink="http://www.w3.org/1999/xlink" x="0px" y="0px"
	 viewBox="0 0 14 14" style="enable-background:new 0 0 14 14;" xml:space="preserve">
<style type="text/css">
	.st0{fill:none;stroke:#FA6900;stroke-linecap:round;stroke-linejoin:round;}
</style>
<g>
	<path class="st0" d="M3,7V4.4c0-2.2,1.8-3.9,4-3.9c0,0,0,0,0,0l0,0c2.2,0,4,1.7,4,3.9c0,0,0,0,0,0V7"/>
	<path class="st0" d="M1.5,5.5h1C2.8,5.5,3,5.7,3,6v3c0,0.3-0.2,0.5-0.5,0.5h-1c-0.6,0-1-0.4-1-1v-2C0.5,5.9,0.9,5.5,1.5,5.5z"/>
	<path class="st0" d="M12.5,9.5h-1C11.2,9.5,11,9.3,11,9V6c0-0.3,0.2-0.5,0.5-0.5h1c0.6,0,1,0.4,1,1v2C13.5,9.1,13.1,9.5,12.5,9.5z"
		/>
	<path class="st0" d="M9,12.2c1.1,0,2-0.9,2-2l0,0V8"/>
	<path class="st0" d="M9,12.2c0,0.7-0.6,1.2-1.2,1.2H6.2c-0.7,0-1.2-0.6-1.2-1.2S5.6,11,6.2,11h1.5C8.4,11,9,11.6,9,12.2z"/>
</g>
</svg>
