<?xml version="1.0" encoding="utf-8"?>
<!-- Generator: Adobe Illustrator 24.2.3, SVG Export Plug-In . SVG Version: 6.00 Build 0)  -->
<svg version="1.1"
	 id="Layer_1" xmlns:cc="http://creativecommons.org/ns#" xmlns:dc="http://purl.org/dc/elements/1.1/" xmlns:inkscape="http://www.inkscape.org/namespaces/inkscape" xmlns:rdf="http://www.w3.org/1999/02/22-rdf-syntax-ns#" xmlns:sodipodi="http://sodipodi.sourceforge.net/DTD/sodipodi-0.dtd" xmlns:svg="http://www.w3.org/2000/svg"
	 xmlns="http://www.w3.org/2000/svg" xmlns:xlink="http://www.w3.org/1999/xlink" x="0px" y="0px" viewBox="0 0 100 29"
	 style="enable-background:new 0 0 100 29;" xml:space="preserve">
<style type="text/css">
	.st0{clip-path:url(#SVGID_2_);}
	.st1{clip-path:url(#SVGID_4_);}
	.st2{clip-path:url(#SVGID_9_);}
	.st3{clip-path:url(#SVGID_14_);}
	.st4{clip-path:url(#SVGID_15_);}
	.st5{clip-path:url(#SVGID_21_);}
	.st6{clip-path:url(#SVGID_22_);}
	.st7{clip-path:url(#SVGID_23_);}
	.st8{clip-path:url(#SVGID_30_);}
	.st9{clip-path:url(#SVGID_31_);}
	.st10{clip-path:url(#SVGID_32_);}
	.st11{clip-path:url(#SVGID_33_);}
	.st12{clip-path:url(#SVGID_41_);}
	.st13{clip-path:url(#SVGID_42_);}
	.st14{clip-path:url(#SVGID_43_);}
	.st15{clip-path:url(#SVGID_44_);}
	.st16{clip-path:url(#SVGID_45_);}
	.st17{clip-path:url(#SVGID_54_);}
	.st18{clip-path:url(#SVGID_55_);}
	.st19{clip-path:url(#SVGID_56_);}
	.st20{clip-path:url(#SVGID_57_);}
	.st21{clip-path:url(#SVGID_58_);}
	.st22{clip-path:url(#SVGID_59_);}
	.st23{clip-path:url(#SVGID_69_);}
	.st24{clip-path:url(#SVGID_70_);}
	.st25{clip-path:url(#SVGID_71_);}
	.st26{clip-path:url(#SVGID_72_);}
	.st27{clip-path:url(#SVGID_73_);}
	.st28{clip-path:url(#SVGID_74_);}
	.st29{clip-path:url(#SVGID_75_);}
	.st30{opacity:0.3;clip-path:url(#SVGID_78_);fill:#A0A0A0;enable-background:new    ;}
	.st31{clip-path:url(#SVGID_88_);}
	.st32{clip-path:url(#SVGID_89_);}
	.st33{clip-path:url(#SVGID_90_);}
	.st34{clip-path:url(#SVGID_91_);}
	.st35{clip-path:url(#SVGID_92_);}
	.st36{clip-path:url(#SVGID_93_);}
	.st37{clip-path:url(#SVGID_94_);}
	.st38{clip-path:url(#SVGID_95_);}
	.st39{clip-path:url(#SVGID_96_);fill:#A0A0A0;}
	.st40{clip-path:url(#SVGID_106_);}
	.st41{clip-path:url(#SVGID_107_);}
	.st42{clip-path:url(#SVGID_108_);}
	.st43{clip-path:url(#SVGID_109_);}
	.st44{clip-path:url(#SVGID_110_);}
	.st45{clip-path:url(#SVGID_111_);}
	.st46{clip-path:url(#SVGID_112_);}
	.st47{clip-path:url(#SVGID_113_);}
	.st48{clip-path:url(#SVGID_114_);fill:#A0A0A0;}
	.st49{clip-path:url(#SVGID_124_);}
	.st50{clip-path:url(#SVGID_125_);}
	.st51{clip-path:url(#SVGID_126_);}
	.st52{clip-path:url(#SVGID_127_);}
	.st53{clip-path:url(#SVGID_128_);}
	.st54{clip-path:url(#SVGID_129_);}
	.st55{clip-path:url(#SVGID_130_);}
	.st56{clip-path:url(#SVGID_131_);}
	.st57{clip-path:url(#SVGID_132_);fill:#A0A0A0;}
	.st58{clip-path:url(#SVGID_142_);}
	.st59{clip-path:url(#SVGID_143_);}
	.st60{clip-path:url(#SVGID_144_);}
	.st61{clip-path:url(#SVGID_145_);}
	.st62{clip-path:url(#SVGID_146_);}
	.st63{clip-path:url(#SVGID_147_);}
	.st64{clip-path:url(#SVGID_148_);}
	.st65{clip-path:url(#SVGID_149_);}
	.st66{clip-path:url(#SVGID_150_);fill:#A0A0A0;}
	.st67{clip-path:url(#SVGID_160_);}
	.st68{clip-path:url(#SVGID_161_);}
	.st69{clip-path:url(#SVGID_162_);}
	.st70{clip-path:url(#SVGID_163_);}
	.st71{clip-path:url(#SVGID_164_);}
	.st72{clip-path:url(#SVGID_165_);}
	.st73{clip-path:url(#SVGID_166_);}
	.st74{clip-path:url(#SVGID_167_);}
	.st75{clip-path:url(#SVGID_168_);fill:#A0A0A0;}
	.st76{clip-path:url(#SVGID_178_);}
	.st77{clip-path:url(#SVGID_179_);}
	.st78{clip-path:url(#SVGID_180_);}
	.st79{clip-path:url(#SVGID_181_);}
	.st80{clip-path:url(#SVGID_182_);}
	.st81{clip-path:url(#SVGID_183_);}
	.st82{clip-path:url(#SVGID_184_);}
	.st83{clip-path:url(#SVGID_185_);}
	.st84{clip-path:url(#SVGID_186_);fill:#A0A0A0;}
	.st85{clip-path:url(#SVGID_196_);}
	.st86{clip-path:url(#SVGID_197_);}
	.st87{clip-path:url(#SVGID_198_);}
	.st88{clip-path:url(#SVGID_199_);}
	.st89{clip-path:url(#SVGID_200_);}
	.st90{clip-path:url(#SVGID_201_);}
	.st91{clip-path:url(#SVGID_202_);}
	.st92{clip-path:url(#SVGID_203_);}
	.st93{clip-path:url(#SVGID_204_);fill:#A0A0A0;}
	.st94{clip-path:url(#SVGID_214_);}
	.st95{clip-path:url(#SVGID_215_);}
	.st96{clip-path:url(#SVGID_216_);}
	.st97{clip-path:url(#SVGID_217_);}
	.st98{clip-path:url(#SVGID_218_);}
	.st99{clip-path:url(#SVGID_219_);}
	.st100{clip-path:url(#SVGID_220_);}
	.st101{clip-path:url(#SVGID_221_);}
	.st102{clip-path:url(#SVGID_222_);fill:#A0A0A0;}
	.st103{clip-path:url(#SVGID_232_);}
	.st104{clip-path:url(#SVGID_233_);}
	.st105{clip-path:url(#SVGID_234_);}
	.st106{clip-path:url(#SVGID_235_);}
	.st107{clip-path:url(#SVGID_236_);}
	.st108{clip-path:url(#SVGID_237_);}
	.st109{clip-path:url(#SVGID_238_);}
	.st110{clip-path:url(#SVGID_239_);}
	.st111{clip-path:url(#SVGID_240_);fill:#A0A0A0;}
</style>
<sodipodi:namedview  bordercolor="#666666" borderopacity="1" gridtolerance="10" guidetolerance="10" id="namedview111" inkscape:current-layer="Layer_1" inkscape:cx="61.112167" inkscape:cy="7.1392046" inkscape:pageopacity="0" inkscape:pageshadow="2" inkscape:showpageshadow="false" inkscape:window-height="705" inkscape:window-maximized="1" inkscape:window-width="1366" inkscape:window-x="-8" inkscape:window-y="-8" inkscape:zoom="1" objecttolerance="10" pagecolor="#ffffff" showgrid="false">
	</sodipodi:namedview>
<g id="g3" transform="translate(-224.3553,-1.40688)">
	<g id="g5">
		<g>
			<defs>
				<rect id="SVGID_1_" x="-130.4" y="-176" width="800" height="500"/>
			</defs>
			<clipPath id="SVGID_2_">
				<use xlink:href="#SVGID_1_"  style="overflow:visible;"/>
			</clipPath>
			<g id="g13" class="st0">
				<g id="g15">
					<g>
						<defs>
							<rect id="SVGID_3_" x="-130.4" y="-176" width="800" height="500"/>
						</defs>
						<clipPath id="SVGID_4_">
							<use xlink:href="#SVGID_3_"  style="overflow:visible;"/>
						</clipPath>
						<g id="g23" class="st1">
							<g id="g37">
								<g>
									<defs>
										<rect id="SVGID_5_" x="-130.4" y="-176" width="800" height="500"/>
									</defs>
									<clipPath id="SVGID_6_">
										<use xlink:href="#SVGID_5_"  style="overflow:visible;"/>
									</clipPath>
								</g>
								<g>
									<defs>
										<rect id="SVGID_7_" x="-130.4" y="-176" width="800" height="500"/>
									</defs>
									<defs>
										<rect id="SVGID_8_" x="-130.4" y="-176" width="800" height="500"/>
									</defs>
									<clipPath id="SVGID_9_">
										<use xlink:href="#SVGID_7_"  style="overflow:visible;"/>
									</clipPath>
									<clipPath id="SVGID_10_" class="st2">
										<use xlink:href="#SVGID_8_"  style="overflow:visible;"/>
									</clipPath>
								</g>
								<g>
									<defs>
										<rect id="SVGID_11_" x="-130.4" y="-176" width="800" height="500"/>
									</defs>
									<defs>
										<rect id="SVGID_12_" x="-130.4" y="-176" width="800" height="500"/>
									</defs>
									<defs>
										<rect id="SVGID_13_" x="-130.4" y="-176" width="800" height="500"/>
									</defs>
									<clipPath id="SVGID_14_">
										<use xlink:href="#SVGID_11_"  style="overflow:visible;"/>
									</clipPath>
									<clipPath id="SVGID_15_" class="st3">
										<use xlink:href="#SVGID_12_"  style="overflow:visible;"/>
									</clipPath>
									<clipPath id="SVGID_16_" class="st4">
										<use xlink:href="#SVGID_13_"  style="overflow:visible;"/>
									</clipPath>
								</g>
								<g>
									<defs>
										<rect id="SVGID_17_" x="-130.4" y="-176" width="800" height="500"/>
									</defs>
									<defs>
										<rect id="SVGID_18_" x="-130.4" y="-176" width="800" height="500"/>
									</defs>
									<defs>
										<rect id="SVGID_19_" x="-130.4" y="-176" width="800" height="500"/>
									</defs>
									<defs>
										<rect id="SVGID_20_" x="-130.4" y="-176" width="800" height="500"/>
									</defs>
									<clipPath id="SVGID_21_">
										<use xlink:href="#SVGID_17_"  style="overflow:visible;"/>
									</clipPath>
									<clipPath id="SVGID_22_" class="st5">
										<use xlink:href="#SVGID_18_"  style="overflow:visible;"/>
									</clipPath>
									<clipPath id="SVGID_23_" class="st6">
										<use xlink:href="#SVGID_19_"  style="overflow:visible;"/>
									</clipPath>
									<clipPath id="SVGID_24_" class="st7">
										<use xlink:href="#SVGID_20_"  style="overflow:visible;"/>
									</clipPath>
								</g>
								<g>
									<defs>
										<rect id="SVGID_25_" x="-130.4" y="-176" width="800" height="500"/>
									</defs>
									<defs>
										<rect id="SVGID_26_" x="-130.4" y="-176" width="800" height="500"/>
									</defs>
									<defs>
										<rect id="SVGID_27_" x="-130.4" y="-176" width="800" height="500"/>
									</defs>
									<defs>
										<rect id="SVGID_28_" x="-130.4" y="-176" width="800" height="500"/>
									</defs>
									<defs>
										<rect id="SVGID_29_" x="-130.4" y="-176" width="800" height="500"/>
									</defs>
									<clipPath id="SVGID_30_">
										<use xlink:href="#SVGID_25_"  style="overflow:visible;"/>
									</clipPath>
									<clipPath id="SVGID_31_" class="st8">
										<use xlink:href="#SVGID_26_"  style="overflow:visible;"/>
									</clipPath>
									<clipPath id="SVGID_32_" class="st9">
										<use xlink:href="#SVGID_27_"  style="overflow:visible;"/>
									</clipPath>
									<clipPath id="SVGID_33_" class="st10">
										<use xlink:href="#SVGID_28_"  style="overflow:visible;"/>
									</clipPath>
									<clipPath id="SVGID_34_" class="st11">
										<use xlink:href="#SVGID_29_"  style="overflow:visible;"/>
									</clipPath>
								</g>
								<g>
									<defs>
										<rect id="SVGID_35_" x="-130.4" y="-176" width="800" height="500"/>
									</defs>
									<defs>
										<rect id="SVGID_36_" x="-130.4" y="-176" width="800" height="500"/>
									</defs>
									<defs>
										<rect id="SVGID_37_" x="-130.4" y="-176" width="800" height="500"/>
									</defs>
									<defs>
										<rect id="SVGID_38_" x="-130.4" y="-176" width="800" height="500"/>
									</defs>
									<defs>
										<rect id="SVGID_39_" x="-130.4" y="-176" width="800" height="500"/>
									</defs>
									<defs>
										<rect id="SVGID_40_" x="-130.4" y="-176" width="800" height="500"/>
									</defs>
									<clipPath id="SVGID_41_">
										<use xlink:href="#SVGID_35_"  style="overflow:visible;"/>
									</clipPath>
									<clipPath id="SVGID_42_" class="st12">
										<use xlink:href="#SVGID_36_"  style="overflow:visible;"/>
									</clipPath>
									<clipPath id="SVGID_43_" class="st13">
										<use xlink:href="#SVGID_37_"  style="overflow:visible;"/>
									</clipPath>
									<clipPath id="SVGID_44_" class="st14">
										<use xlink:href="#SVGID_38_"  style="overflow:visible;"/>
									</clipPath>
									<clipPath id="SVGID_45_" class="st15">
										<use xlink:href="#SVGID_39_"  style="overflow:visible;"/>
									</clipPath>
									<clipPath id="SVGID_46_" class="st16">
										<use xlink:href="#SVGID_40_"  style="overflow:visible;"/>
									</clipPath>
								</g>
								<g>
									<defs>
										<rect id="SVGID_47_" x="-130.4" y="-176" width="800" height="500"/>
									</defs>
									<defs>
										<rect id="SVGID_48_" x="-130.4" y="-176" width="800" height="500"/>
									</defs>
									<defs>
										<rect id="SVGID_49_" x="-130.4" y="-176" width="800" height="500"/>
									</defs>
									<defs>
										<rect id="SVGID_50_" x="-130.4" y="-176" width="800" height="500"/>
									</defs>
									<defs>
										<rect id="SVGID_51_" x="-130.4" y="-176" width="800" height="500"/>
									</defs>
									<defs>
										<rect id="SVGID_52_" x="-130.4" y="-176" width="800" height="500"/>
									</defs>
									<defs>
										<rect id="SVGID_53_" x="-130.4" y="-176" width="800" height="500"/>
									</defs>
									<clipPath id="SVGID_54_">
										<use xlink:href="#SVGID_47_"  style="overflow:visible;"/>
									</clipPath>
									<clipPath id="SVGID_55_" class="st17">
										<use xlink:href="#SVGID_48_"  style="overflow:visible;"/>
									</clipPath>
									<clipPath id="SVGID_56_" class="st18">
										<use xlink:href="#SVGID_49_"  style="overflow:visible;"/>
									</clipPath>
									<clipPath id="SVGID_57_" class="st19">
										<use xlink:href="#SVGID_50_"  style="overflow:visible;"/>
									</clipPath>
									<clipPath id="SVGID_58_" class="st20">
										<use xlink:href="#SVGID_51_"  style="overflow:visible;"/>
									</clipPath>
									<clipPath id="SVGID_59_" class="st21">
										<use xlink:href="#SVGID_52_"  style="overflow:visible;"/>
									</clipPath>
									<clipPath id="SVGID_60_" class="st22">
										<use xlink:href="#SVGID_53_"  style="overflow:visible;"/>
									</clipPath>
								</g>
								<g>
									<defs>
										<rect id="SVGID_61_" x="-130.4" y="-176" width="800" height="500"/>
									</defs>
									<defs>
										<rect id="SVGID_62_" x="-130.4" y="-176" width="800" height="500"/>
									</defs>
									<defs>
										<rect id="SVGID_63_" x="-130.4" y="-176" width="800" height="500"/>
									</defs>
									<defs>
										<rect id="SVGID_64_" x="-130.4" y="-176" width="800" height="500"/>
									</defs>
									<defs>
										<rect id="SVGID_65_" x="-130.4" y="-176" width="800" height="500"/>
									</defs>
									<defs>
										<rect id="SVGID_66_" x="-130.4" y="-176" width="800" height="500"/>
									</defs>
									<defs>
										<rect id="SVGID_67_" x="-130.4" y="-176" width="800" height="500"/>
									</defs>
									<defs>
										<rect id="SVGID_68_" x="-130.4" y="-176" width="800" height="500"/>
									</defs>
									<clipPath id="SVGID_69_">
										<use xlink:href="#SVGID_61_"  style="overflow:visible;"/>
									</clipPath>
									<clipPath id="SVGID_70_" class="st23">
										<use xlink:href="#SVGID_62_"  style="overflow:visible;"/>
									</clipPath>
									<clipPath id="SVGID_71_" class="st24">
										<use xlink:href="#SVGID_63_"  style="overflow:visible;"/>
									</clipPath>
									<clipPath id="SVGID_72_" class="st25">
										<use xlink:href="#SVGID_64_"  style="overflow:visible;"/>
									</clipPath>
									<clipPath id="SVGID_73_" class="st26">
										<use xlink:href="#SVGID_65_"  style="overflow:visible;"/>
									</clipPath>
									<clipPath id="SVGID_74_" class="st27">
										<use xlink:href="#SVGID_66_"  style="overflow:visible;"/>
									</clipPath>
									<clipPath id="SVGID_75_" class="st28">
										<use xlink:href="#SVGID_67_"  style="overflow:visible;"/>
									</clipPath>
									<clipPath id="SVGID_76_" class="st29">
										<use xlink:href="#SVGID_68_"  style="overflow:visible;"/>
									</clipPath>
								</g>
							</g>
						</g>
					</g>
				</g>
			</g>
		</g>
	</g>
</g>
<g>
	<defs>
		<rect id="SVGID_77_" x="1.2" y="1.3" width="26.2" height="26.6"/>
	</defs>
	<clipPath id="SVGID_78_">
		<use xlink:href="#SVGID_77_"  style="overflow:visible;"/>
	</clipPath>
	<path id="path35" inkscape:connector-curvature="0" class="st30" d="M1.2,27.9l12.9,0c7.3,0,13.3-6,13.3-13.3s-6-13.3-13.3-13.3
		l-12.9,0C1.2,1.3,1.2,27.9,1.2,27.9z"/>
</g>
<g>
	<defs>
		<rect id="SVGID_79_" x="-22.6" y="-30.8" width="145.2" height="90.7"/>
	</defs>
	<defs>
		<rect id="SVGID_80_" x="-22.6" y="-30.8" width="145.2" height="90.7"/>
	</defs>
	<defs>
		<rect id="SVGID_81_" x="-22.6" y="-30.8" width="145.2" height="90.7"/>
	</defs>
	<defs>
		<rect id="SVGID_82_" x="-22.6" y="-30.8" width="145.2" height="90.7"/>
	</defs>
	<defs>
		<rect id="SVGID_83_" x="-22.6" y="-30.8" width="145.2" height="90.7"/>
	</defs>
	<defs>
		<rect id="SVGID_84_" x="-22.6" y="-30.8" width="145.2" height="90.7"/>
	</defs>
	<defs>
		<rect id="SVGID_85_" x="-22.6" y="-30.8" width="145.2" height="90.7"/>
	</defs>
	<defs>
		<rect id="SVGID_86_" x="-22.6" y="-30.8" width="145.2" height="90.7"/>
	</defs>
	<defs>
		<rect id="SVGID_87_" x="-22.6" y="-30.8" width="145.2" height="90.7"/>
	</defs>
	<clipPath id="SVGID_88_">
		<use xlink:href="#SVGID_79_"  style="overflow:visible;"/>
	</clipPath>
	<clipPath id="SVGID_89_" class="st31">
		<use xlink:href="#SVGID_80_"  style="overflow:visible;"/>
	</clipPath>
	<clipPath id="SVGID_90_" class="st32">
		<use xlink:href="#SVGID_81_"  style="overflow:visible;"/>
	</clipPath>
	<clipPath id="SVGID_91_" class="st33">
		<use xlink:href="#SVGID_82_"  style="overflow:visible;"/>
	</clipPath>
	<clipPath id="SVGID_92_" class="st34">
		<use xlink:href="#SVGID_83_"  style="overflow:visible;"/>
	</clipPath>
	<clipPath id="SVGID_93_" class="st35">
		<use xlink:href="#SVGID_84_"  style="overflow:visible;"/>
	</clipPath>
	<clipPath id="SVGID_94_" class="st36">
		<use xlink:href="#SVGID_85_"  style="overflow:visible;"/>
	</clipPath>
	<clipPath id="SVGID_95_" class="st37">
		<use xlink:href="#SVGID_86_"  style="overflow:visible;"/>
	</clipPath>
	<clipPath id="SVGID_96_" class="st38">
		<use xlink:href="#SVGID_87_"  style="overflow:visible;"/>
	</clipPath>
	<path id="path93" inkscape:connector-curvature="0" class="st39" d="M1.2,1.3C1.2,1.3,1.2,1.3,1.2,1.3L1.2,27.9c0,0,0,0,0.1,0
		c7.3,0,13.3-6,13.3-13.3S8.6,1.3,1.2,1.3"/>
</g>
<g>
	<defs>
		<rect id="SVGID_97_" x="-22.6" y="-30.8" width="145.2" height="90.7"/>
	</defs>
	<defs>
		<rect id="SVGID_98_" x="-22.6" y="-30.8" width="145.2" height="90.7"/>
	</defs>
	<defs>
		<rect id="SVGID_99_" x="-22.6" y="-30.8" width="145.2" height="90.7"/>
	</defs>
	<defs>
		<rect id="SVGID_100_" x="-22.6" y="-30.8" width="145.2" height="90.7"/>
	</defs>
	<defs>
		<rect id="SVGID_101_" x="-22.6" y="-30.8" width="145.2" height="90.7"/>
	</defs>
	<defs>
		<rect id="SVGID_102_" x="-22.6" y="-30.8" width="145.2" height="90.7"/>
	</defs>
	<defs>
		<rect id="SVGID_103_" x="-22.6" y="-30.8" width="145.2" height="90.7"/>
	</defs>
	<defs>
		<rect id="SVGID_104_" x="-22.6" y="-30.8" width="145.2" height="90.7"/>
	</defs>
	<defs>
		<rect id="SVGID_105_" x="-22.6" y="-30.8" width="145.2" height="90.7"/>
	</defs>
	<clipPath id="SVGID_106_">
		<use xlink:href="#SVGID_97_"  style="overflow:visible;"/>
	</clipPath>
	<clipPath id="SVGID_107_" class="st40">
		<use xlink:href="#SVGID_98_"  style="overflow:visible;"/>
	</clipPath>
	<clipPath id="SVGID_108_" class="st41">
		<use xlink:href="#SVGID_99_"  style="overflow:visible;"/>
	</clipPath>
	<clipPath id="SVGID_109_" class="st42">
		<use xlink:href="#SVGID_100_"  style="overflow:visible;"/>
	</clipPath>
	<clipPath id="SVGID_110_" class="st43">
		<use xlink:href="#SVGID_101_"  style="overflow:visible;"/>
	</clipPath>
	<clipPath id="SVGID_111_" class="st44">
		<use xlink:href="#SVGID_102_"  style="overflow:visible;"/>
	</clipPath>
	<clipPath id="SVGID_112_" class="st45">
		<use xlink:href="#SVGID_103_"  style="overflow:visible;"/>
	</clipPath>
	<clipPath id="SVGID_113_" class="st46">
		<use xlink:href="#SVGID_104_"  style="overflow:visible;"/>
	</clipPath>
	<clipPath id="SVGID_114_" class="st47">
		<use xlink:href="#SVGID_105_"  style="overflow:visible;"/>
	</clipPath>
	<path id="path95" inkscape:connector-curvature="0" class="st48" d="M41.4,9.5h-1.6c0,0-0.1,0-0.1,0.1v2.9c-0.5-0.6-1.3-1-2.3-1
		c-2.3,0-3.9,2-3.9,3.9c0,1.9,1.4,3.9,3.8,3.9c0.9,0,1.8-0.4,2.3-1v0.7c0,0,0,0.1,0.1,0.1h1.6c0,0,0.1,0,0.1-0.1L41.4,9.5
		C41.5,9.5,41.4,9.5,41.4,9.5 M37.6,17.6c-1.2,0-2.2-1-2.2-2.3c0-1.3,1-2.3,2.2-2.3c1.2,0,2.2,1,2.2,2.3S38.8,17.6,37.6,17.6"/>
</g>
<g>
	<defs>
		<rect id="SVGID_115_" x="-22.6" y="-30.8" width="145.2" height="90.7"/>
	</defs>
	<defs>
		<rect id="SVGID_116_" x="-22.6" y="-30.8" width="145.2" height="90.7"/>
	</defs>
	<defs>
		<rect id="SVGID_117_" x="-22.6" y="-30.8" width="145.2" height="90.7"/>
	</defs>
	<defs>
		<rect id="SVGID_118_" x="-22.6" y="-30.8" width="145.2" height="90.7"/>
	</defs>
	<defs>
		<rect id="SVGID_119_" x="-22.6" y="-30.8" width="145.2" height="90.7"/>
	</defs>
	<defs>
		<rect id="SVGID_120_" x="-22.6" y="-30.8" width="145.2" height="90.7"/>
	</defs>
	<defs>
		<rect id="SVGID_121_" x="-22.6" y="-30.8" width="145.2" height="90.7"/>
	</defs>
	<defs>
		<rect id="SVGID_122_" x="-22.6" y="-30.8" width="145.2" height="90.7"/>
	</defs>
	<defs>
		<rect id="SVGID_123_" x="-22.6" y="-30.8" width="145.2" height="90.7"/>
	</defs>
	<clipPath id="SVGID_124_">
		<use xlink:href="#SVGID_115_"  style="overflow:visible;"/>
	</clipPath>
	<clipPath id="SVGID_125_" class="st49">
		<use xlink:href="#SVGID_116_"  style="overflow:visible;"/>
	</clipPath>
	<clipPath id="SVGID_126_" class="st50">
		<use xlink:href="#SVGID_117_"  style="overflow:visible;"/>
	</clipPath>
	<clipPath id="SVGID_127_" class="st51">
		<use xlink:href="#SVGID_118_"  style="overflow:visible;"/>
	</clipPath>
	<clipPath id="SVGID_128_" class="st52">
		<use xlink:href="#SVGID_119_"  style="overflow:visible;"/>
	</clipPath>
	<clipPath id="SVGID_129_" class="st53">
		<use xlink:href="#SVGID_120_"  style="overflow:visible;"/>
	</clipPath>
	<clipPath id="SVGID_130_" class="st54">
		<use xlink:href="#SVGID_121_"  style="overflow:visible;"/>
	</clipPath>
	<clipPath id="SVGID_131_" class="st55">
		<use xlink:href="#SVGID_122_"  style="overflow:visible;"/>
	</clipPath>
	<clipPath id="SVGID_132_" class="st56">
		<use xlink:href="#SVGID_123_"  style="overflow:visible;"/>
	</clipPath>
	<path id="path97" inkscape:connector-curvature="0" class="st57" d="M46.8,11.4c-2.6,0-4.1,2-4.1,3.9c0,1.9,1.4,3.9,4.1,3.9
		c1.3,0,2.5-0.7,3.4-1.8c0,0,0,0,0-0.1c0,0,0,0,0,0l-1.3-0.7c0,0-0.1,0-0.1,0c-0.5,0.7-1.2,1.1-2,1.1c-1.1,0-2-0.8-2.1-1.8h6
		c0,0,0.1,0,0.1-0.1v-0.3C50.6,12.7,48.4,11.4,46.8,11.4 M46.6,12.9c1,0,1.7,0.6,2,1.5h-4C44.9,13.5,45.6,12.9,46.6,12.9"/>
</g>
<g>
	<defs>
		<rect id="SVGID_133_" x="-22.6" y="-30.8" width="145.2" height="90.7"/>
	</defs>
	<defs>
		<rect id="SVGID_134_" x="-22.6" y="-30.8" width="145.2" height="90.7"/>
	</defs>
	<defs>
		<rect id="SVGID_135_" x="-22.6" y="-30.8" width="145.2" height="90.7"/>
	</defs>
	<defs>
		<rect id="SVGID_136_" x="-22.6" y="-30.8" width="145.2" height="90.7"/>
	</defs>
	<defs>
		<rect id="SVGID_137_" x="-22.6" y="-30.8" width="145.2" height="90.7"/>
	</defs>
	<defs>
		<rect id="SVGID_138_" x="-22.6" y="-30.8" width="145.2" height="90.7"/>
	</defs>
	<defs>
		<rect id="SVGID_139_" x="-22.6" y="-30.8" width="145.2" height="90.7"/>
	</defs>
	<defs>
		<rect id="SVGID_140_" x="-22.6" y="-30.8" width="145.2" height="90.7"/>
	</defs>
	<defs>
		<rect id="SVGID_141_" x="-22.6" y="-30.8" width="145.2" height="90.7"/>
	</defs>
	<clipPath id="SVGID_142_">
		<use xlink:href="#SVGID_133_"  style="overflow:visible;"/>
	</clipPath>
	<clipPath id="SVGID_143_" class="st58">
		<use xlink:href="#SVGID_134_"  style="overflow:visible;"/>
	</clipPath>
	<clipPath id="SVGID_144_" class="st59">
		<use xlink:href="#SVGID_135_"  style="overflow:visible;"/>
	</clipPath>
	<clipPath id="SVGID_145_" class="st60">
		<use xlink:href="#SVGID_136_"  style="overflow:visible;"/>
	</clipPath>
	<clipPath id="SVGID_146_" class="st61">
		<use xlink:href="#SVGID_137_"  style="overflow:visible;"/>
	</clipPath>
	<clipPath id="SVGID_147_" class="st62">
		<use xlink:href="#SVGID_138_"  style="overflow:visible;"/>
	</clipPath>
	<clipPath id="SVGID_148_" class="st63">
		<use xlink:href="#SVGID_139_"  style="overflow:visible;"/>
	</clipPath>
	<clipPath id="SVGID_149_" class="st64">
		<use xlink:href="#SVGID_140_"  style="overflow:visible;"/>
	</clipPath>
	<clipPath id="SVGID_150_" class="st65">
		<use xlink:href="#SVGID_141_"  style="overflow:visible;"/>
	</clipPath>
	<path id="path99" inkscape:connector-curvature="0" class="st66" d="M55.9,14.7l-1.6-0.3c-0.6-0.1-0.9-0.3-0.9-0.7
		c0-0.5,0.7-0.8,1.3-0.8c0.6,0,1.3,0.3,1.9,0.8c0,0,0,0,0.1,0c0,0,0,0,0,0l0.9-1.1c0,0,0,0,0-0.1c0,0,0,0,0,0c-1-0.7-1.9-1-2.9-1
		c-1.9,0-2.9,1.2-2.9,2.4c0,1.2,0.7,1.8,2.7,2.1l0.9,0.2c0.6,0.1,0.9,0.4,0.9,0.8c0,0.3-0.5,0.8-1.4,0.8c-0.8,0-1.7-0.4-2.2-1
		c0,0,0,0-0.1,0c0,0,0,0-0.1,0l-1.1,1.1c0,0,0,0,0,0.1c0,0,0,0,0,0.1c1,0.9,2.1,1.3,3.3,1.3c1,0,1.8-0.3,2.4-0.8
		c0.5-0.5,0.7-1.1,0.7-1.7C57.9,15.6,57.2,14.9,55.9,14.7"/>
</g>
<g>
	<defs>
		<rect id="SVGID_151_" x="-22.6" y="-30.8" width="145.2" height="90.7"/>
	</defs>
	<defs>
		<rect id="SVGID_152_" x="-22.6" y="-30.8" width="145.2" height="90.7"/>
	</defs>
	<defs>
		<rect id="SVGID_153_" x="-22.6" y="-30.8" width="145.2" height="90.7"/>
	</defs>
	<defs>
		<rect id="SVGID_154_" x="-22.6" y="-30.8" width="145.2" height="90.7"/>
	</defs>
	<defs>
		<rect id="SVGID_155_" x="-22.6" y="-30.8" width="145.2" height="90.7"/>
	</defs>
	<defs>
		<rect id="SVGID_156_" x="-22.6" y="-30.8" width="145.2" height="90.7"/>
	</defs>
	<defs>
		<rect id="SVGID_157_" x="-22.6" y="-30.8" width="145.2" height="90.7"/>
	</defs>
	<defs>
		<rect id="SVGID_158_" x="-22.6" y="-30.8" width="145.2" height="90.7"/>
	</defs>
	<defs>
		<rect id="SVGID_159_" x="-22.6" y="-30.8" width="145.2" height="90.7"/>
	</defs>
	<clipPath id="SVGID_160_">
		<use xlink:href="#SVGID_151_"  style="overflow:visible;"/>
	</clipPath>
	<clipPath id="SVGID_161_" class="st67">
		<use xlink:href="#SVGID_152_"  style="overflow:visible;"/>
	</clipPath>
	<clipPath id="SVGID_162_" class="st68">
		<use xlink:href="#SVGID_153_"  style="overflow:visible;"/>
	</clipPath>
	<clipPath id="SVGID_163_" class="st69">
		<use xlink:href="#SVGID_154_"  style="overflow:visible;"/>
	</clipPath>
	<clipPath id="SVGID_164_" class="st70">
		<use xlink:href="#SVGID_155_"  style="overflow:visible;"/>
	</clipPath>
	<clipPath id="SVGID_165_" class="st71">
		<use xlink:href="#SVGID_156_"  style="overflow:visible;"/>
	</clipPath>
	<clipPath id="SVGID_166_" class="st72">
		<use xlink:href="#SVGID_157_"  style="overflow:visible;"/>
	</clipPath>
	<clipPath id="SVGID_167_" class="st73">
		<use xlink:href="#SVGID_158_"  style="overflow:visible;"/>
	</clipPath>
	<clipPath id="SVGID_168_" class="st74">
		<use xlink:href="#SVGID_159_"  style="overflow:visible;"/>
	</clipPath>
	<path id="path101" inkscape:connector-curvature="0" class="st75" d="M63,11.4c-0.9,0-1.8,0.4-2.3,1v-0.7c0,0,0-0.1-0.1-0.1h-1.6
		c0,0-0.1,0-0.1,0.1v9.8c0,0,0,0.1,0.1,0.1h1.6c0,0,0.1,0,0.1-0.1v-3.2c0.5,0.6,1.3,1,2.3,1c2.3,0,3.9-2,3.9-3.9
		C66.9,13.4,65.4,11.4,63,11.4 M62.9,13c1.2,0,2.2,1,2.2,2.3c0,1.3-1,2.3-2.2,2.3c-1.2,0-2.2-1-2.2-2.3C60.6,14.1,61.7,13,62.9,13"
		/>
</g>
<g>
	<defs>
		<rect id="SVGID_169_" x="-22.6" y="-30.8" width="145.2" height="90.7"/>
	</defs>
	<defs>
		<rect id="SVGID_170_" x="-22.6" y="-30.8" width="145.2" height="90.7"/>
	</defs>
	<defs>
		<rect id="SVGID_171_" x="-22.6" y="-30.8" width="145.2" height="90.7"/>
	</defs>
	<defs>
		<rect id="SVGID_172_" x="-22.6" y="-30.8" width="145.2" height="90.7"/>
	</defs>
	<defs>
		<rect id="SVGID_173_" x="-22.6" y="-30.8" width="145.2" height="90.7"/>
	</defs>
	<defs>
		<rect id="SVGID_174_" x="-22.6" y="-30.8" width="145.2" height="90.7"/>
	</defs>
	<defs>
		<rect id="SVGID_175_" x="-22.6" y="-30.8" width="145.2" height="90.7"/>
	</defs>
	<defs>
		<rect id="SVGID_176_" x="-22.6" y="-30.8" width="145.2" height="90.7"/>
	</defs>
	<defs>
		<rect id="SVGID_177_" x="-22.6" y="-30.8" width="145.2" height="90.7"/>
	</defs>
	<clipPath id="SVGID_178_">
		<use xlink:href="#SVGID_169_"  style="overflow:visible;"/>
	</clipPath>
	<clipPath id="SVGID_179_" class="st76">
		<use xlink:href="#SVGID_170_"  style="overflow:visible;"/>
	</clipPath>
	<clipPath id="SVGID_180_" class="st77">
		<use xlink:href="#SVGID_171_"  style="overflow:visible;"/>
	</clipPath>
	<clipPath id="SVGID_181_" class="st78">
		<use xlink:href="#SVGID_172_"  style="overflow:visible;"/>
	</clipPath>
	<clipPath id="SVGID_182_" class="st79">
		<use xlink:href="#SVGID_173_"  style="overflow:visible;"/>
	</clipPath>
	<clipPath id="SVGID_183_" class="st80">
		<use xlink:href="#SVGID_174_"  style="overflow:visible;"/>
	</clipPath>
	<clipPath id="SVGID_184_" class="st81">
		<use xlink:href="#SVGID_175_"  style="overflow:visible;"/>
	</clipPath>
	<clipPath id="SVGID_185_" class="st82">
		<use xlink:href="#SVGID_176_"  style="overflow:visible;"/>
	</clipPath>
	<clipPath id="SVGID_186_" class="st83">
		<use xlink:href="#SVGID_177_"  style="overflow:visible;"/>
	</clipPath>
	<path id="path103" inkscape:connector-curvature="0" class="st84" d="M71.8,11.4c-2.6,0-4.1,2-4.1,3.9c0,1.9,1.4,3.9,4.1,3.9
		c1.3,0,2.5-0.7,3.4-1.8c0,0,0,0,0-0.1c0,0,0,0,0,0l-1.3-0.7c0,0-0.1,0-0.1,0c-0.5,0.7-1.2,1.1-2,1.1c-1.1,0-2-0.8-2.1-1.8h6
		c0,0,0.1,0,0.1-0.1v-0.3C75.7,12.7,73.4,11.4,71.8,11.4 M71.6,12.9c1,0,1.7,0.6,2,1.5h-4C69.9,13.5,70.7,12.9,71.6,12.9"/>
</g>
<g>
	<defs>
		<rect id="SVGID_187_" x="-22.6" y="-30.8" width="145.2" height="90.7"/>
	</defs>
	<defs>
		<rect id="SVGID_188_" x="-22.6" y="-30.8" width="145.2" height="90.7"/>
	</defs>
	<defs>
		<rect id="SVGID_189_" x="-22.6" y="-30.8" width="145.2" height="90.7"/>
	</defs>
	<defs>
		<rect id="SVGID_190_" x="-22.6" y="-30.8" width="145.2" height="90.7"/>
	</defs>
	<defs>
		<rect id="SVGID_191_" x="-22.6" y="-30.8" width="145.2" height="90.7"/>
	</defs>
	<defs>
		<rect id="SVGID_192_" x="-22.6" y="-30.8" width="145.2" height="90.7"/>
	</defs>
	<defs>
		<rect id="SVGID_193_" x="-22.6" y="-30.8" width="145.2" height="90.7"/>
	</defs>
	<defs>
		<rect id="SVGID_194_" x="-22.6" y="-30.8" width="145.2" height="90.7"/>
	</defs>
	<defs>
		<rect id="SVGID_195_" x="-22.6" y="-30.8" width="145.2" height="90.7"/>
	</defs>
	<clipPath id="SVGID_196_">
		<use xlink:href="#SVGID_187_"  style="overflow:visible;"/>
	</clipPath>
	<clipPath id="SVGID_197_" class="st85">
		<use xlink:href="#SVGID_188_"  style="overflow:visible;"/>
	</clipPath>
	<clipPath id="SVGID_198_" class="st86">
		<use xlink:href="#SVGID_189_"  style="overflow:visible;"/>
	</clipPath>
	<clipPath id="SVGID_199_" class="st87">
		<use xlink:href="#SVGID_190_"  style="overflow:visible;"/>
	</clipPath>
	<clipPath id="SVGID_200_" class="st88">
		<use xlink:href="#SVGID_191_"  style="overflow:visible;"/>
	</clipPath>
	<clipPath id="SVGID_201_" class="st89">
		<use xlink:href="#SVGID_192_"  style="overflow:visible;"/>
	</clipPath>
	<clipPath id="SVGID_202_" class="st90">
		<use xlink:href="#SVGID_193_"  style="overflow:visible;"/>
	</clipPath>
	<clipPath id="SVGID_203_" class="st91">
		<use xlink:href="#SVGID_194_"  style="overflow:visible;"/>
	</clipPath>
	<clipPath id="SVGID_204_" class="st92">
		<use xlink:href="#SVGID_195_"  style="overflow:visible;"/>
	</clipPath>
	<path id="path105" inkscape:connector-curvature="0" class="st93" d="M84.2,11.6h-1.5c0,0-0.1,0-0.1,0.1v0.7c-0.5-0.6-1.3-1-2.2-1
		c-1.9,0-3.8,1.3-3.8,3.8c0,2.5,1.8,3.8,3.6,3.8c1,0,1.7-0.3,2.4-1v0.3c0,1.4-1.2,2.1-2.3,2.1c-0.7,0-1.3-0.4-1.7-0.9c0,0,0,0,0,0
		c0,0,0,0-0.1,0l-1.3,0.9c0,0,0,0,0,0c0,0,0,0,0,0.1c0.7,0.9,1.9,1.5,3.1,1.5c1,0,2-0.4,2.7-1c0.8-0.7,1.2-1.7,1.2-2.8L84.2,11.6
		C84.3,11.6,84.2,11.6,84.2,11.6 M80.6,17.4c-1.2,0-2.1-0.9-2.1-2.2c0-1.2,0.9-2.2,2.1-2.2c1.2,0,2.1,1,2.1,2.2
		C82.7,16.5,81.8,17.4,80.6,17.4"/>
</g>
<g>
	<defs>
		<rect id="SVGID_205_" x="-22.6" y="-30.8" width="145.2" height="90.7"/>
	</defs>
	<defs>
		<rect id="SVGID_206_" x="-22.6" y="-30.8" width="145.2" height="90.7"/>
	</defs>
	<defs>
		<rect id="SVGID_207_" x="-22.6" y="-30.8" width="145.2" height="90.7"/>
	</defs>
	<defs>
		<rect id="SVGID_208_" x="-22.6" y="-30.8" width="145.2" height="90.7"/>
	</defs>
	<defs>
		<rect id="SVGID_209_" x="-22.6" y="-30.8" width="145.2" height="90.7"/>
	</defs>
	<defs>
		<rect id="SVGID_210_" x="-22.6" y="-30.8" width="145.2" height="90.7"/>
	</defs>
	<defs>
		<rect id="SVGID_211_" x="-22.6" y="-30.8" width="145.2" height="90.7"/>
	</defs>
	<defs>
		<rect id="SVGID_212_" x="-22.6" y="-30.8" width="145.2" height="90.7"/>
	</defs>
	<defs>
		<rect id="SVGID_213_" x="-22.6" y="-30.8" width="145.2" height="90.7"/>
	</defs>
	<clipPath id="SVGID_214_">
		<use xlink:href="#SVGID_205_"  style="overflow:visible;"/>
	</clipPath>
	<clipPath id="SVGID_215_" class="st94">
		<use xlink:href="#SVGID_206_"  style="overflow:visible;"/>
	</clipPath>
	<clipPath id="SVGID_216_" class="st95">
		<use xlink:href="#SVGID_207_"  style="overflow:visible;"/>
	</clipPath>
	<clipPath id="SVGID_217_" class="st96">
		<use xlink:href="#SVGID_208_"  style="overflow:visible;"/>
	</clipPath>
	<clipPath id="SVGID_218_" class="st97">
		<use xlink:href="#SVGID_209_"  style="overflow:visible;"/>
	</clipPath>
	<clipPath id="SVGID_219_" class="st98">
		<use xlink:href="#SVGID_210_"  style="overflow:visible;"/>
	</clipPath>
	<clipPath id="SVGID_220_" class="st99">
		<use xlink:href="#SVGID_211_"  style="overflow:visible;"/>
	</clipPath>
	<clipPath id="SVGID_221_" class="st100">
		<use xlink:href="#SVGID_212_"  style="overflow:visible;"/>
	</clipPath>
	<clipPath id="SVGID_222_" class="st101">
		<use xlink:href="#SVGID_213_"  style="overflow:visible;"/>
	</clipPath>
	<path id="path107" inkscape:connector-curvature="0" class="st102" d="M93.1,11.6h-1.6c0,0-0.1,0-0.1,0.1v0.7c-0.5-0.6-1.3-1-2.3-1
		c-2.3,0-3.9,2-3.9,3.9c0,1.9,1.4,3.9,3.8,3.9c0.9,0,1.8-0.4,2.3-1v0.7c0,0,0,0.1,0.1,0.1h1.6c0,0,0.1,0,0.1-0.1L93.1,11.6
		C93.2,11.6,93.2,11.6,93.1,11.6 M89.3,17.6c-1.2,0-2.2-1-2.2-2.3c0-1.3,1-2.3,2.2-2.3c1.2,0,2.2,1,2.2,2.3S90.5,17.6,89.3,17.6"/>
</g>
<g>
	<defs>
		<rect id="SVGID_223_" x="-22.6" y="-30.8" width="145.2" height="90.7"/>
	</defs>
	<defs>
		<rect id="SVGID_224_" x="-22.6" y="-30.8" width="145.2" height="90.7"/>
	</defs>
	<defs>
		<rect id="SVGID_225_" x="-22.6" y="-30.8" width="145.2" height="90.7"/>
	</defs>
	<defs>
		<rect id="SVGID_226_" x="-22.6" y="-30.8" width="145.2" height="90.7"/>
	</defs>
	<defs>
		<rect id="SVGID_227_" x="-22.6" y="-30.8" width="145.2" height="90.7"/>
	</defs>
	<defs>
		<rect id="SVGID_228_" x="-22.6" y="-30.8" width="145.2" height="90.7"/>
	</defs>
	<defs>
		<rect id="SVGID_229_" x="-22.6" y="-30.8" width="145.2" height="90.7"/>
	</defs>
	<defs>
		<rect id="SVGID_230_" x="-22.6" y="-30.8" width="145.2" height="90.7"/>
	</defs>
	<defs>
		<rect id="SVGID_231_" x="-22.6" y="-30.8" width="145.2" height="90.7"/>
	</defs>
	<clipPath id="SVGID_232_">
		<use xlink:href="#SVGID_223_"  style="overflow:visible;"/>
	</clipPath>
	<clipPath id="SVGID_233_" class="st103">
		<use xlink:href="#SVGID_224_"  style="overflow:visible;"/>
	</clipPath>
	<clipPath id="SVGID_234_" class="st104">
		<use xlink:href="#SVGID_225_"  style="overflow:visible;"/>
	</clipPath>
	<clipPath id="SVGID_235_" class="st105">
		<use xlink:href="#SVGID_226_"  style="overflow:visible;"/>
	</clipPath>
	<clipPath id="SVGID_236_" class="st106">
		<use xlink:href="#SVGID_227_"  style="overflow:visible;"/>
	</clipPath>
	<clipPath id="SVGID_237_" class="st107">
		<use xlink:href="#SVGID_228_"  style="overflow:visible;"/>
	</clipPath>
	<clipPath id="SVGID_238_" class="st108">
		<use xlink:href="#SVGID_229_"  style="overflow:visible;"/>
	</clipPath>
	<clipPath id="SVGID_239_" class="st109">
		<use xlink:href="#SVGID_230_"  style="overflow:visible;"/>
	</clipPath>
	<clipPath id="SVGID_240_" class="st110">
		<use xlink:href="#SVGID_231_"  style="overflow:visible;"/>
	</clipPath>
	<path id="path109" inkscape:connector-curvature="0" class="st111" d="M98.8,11.7c-0.2-0.2-0.6-0.2-0.9-0.2c-0.6,0-1.1,0.3-1.4,0.8
		v-0.5c0,0,0-0.1-0.1-0.1H95c0,0-0.1,0-0.1,0.1v7.3c0,0,0,0.1,0.1,0.1h1.6c0,0,0.1,0,0.1-0.1v-4.8c0-0.7,0.5-1,1-1
		c0.1,0,0.4,0.1,0.5,0.2c0,0,0,0,0.1,0c0,0,0,0,0,0L98.8,11.7C98.9,11.7,98.8,11.7,98.8,11.7"/>
</g>
</svg>
