<svg id="Layer_1" data-name="Layer 1" xmlns="http://www.w3.org/2000/svg" xmlns:xlink="http://www.w3.org/1999/xlink" viewBox="0 0 140.6 54.1"><defs><style>.cls-1{fill:#09487b;}.cls-2{fill:#fa6900;}.cls-3{fill:#fff;}.cls-4{fill:url(#linear-gradient);}.cls-5{fill:url(#linear-gradient-2);}</style><linearGradient id="linear-gradient" x1="13.81" y1="23.81" x2="34.35" y2="9" gradientUnits="userSpaceOnUse"><stop offset="0" stop-color="#09487b"/><stop offset="0.09" stop-color="#2c4d69"/><stop offset="0.46" stop-color="#bf611e"/><stop offset="0.62" stop-color="#fa6900"/></linearGradient><linearGradient id="linear-gradient-2" x1="64.51" y1="52.27" x2="85.05" y2="37.47" gradientTransform="translate(87.87 90.54) rotate(-174.51)" xlink:href="#linear-gradient"/></defs><path class="cls-1" d="M52.5,19.2a4.14,4.14,0,0,1-.6,2.3A3.58,3.58,0,0,1,50,23a8.53,8.53,0,0,1-3,.5,7.57,7.57,0,0,1-1.5-.1c-.5-.1-1-.2-1.4-.3a5,5,0,0,1-1.3-.5v-3c.7.3,1.5.6,2.2.9a6.2,6.2,0,0,0,2.3.4,5.07,5.07,0,0,0,1.3-.2,1.34,1.34,0,0,0,.7-.6,1.88,1.88,0,0,0,.2-.8,1.28,1.28,0,0,0-.4-1,8.74,8.74,0,0,0-1-.8c-.4-.2-.9-.5-1.5-.8a10.91,10.91,0,0,0-1.1-.6,4.7,4.7,0,0,1-1.2-.9,4.7,4.7,0,0,1-.9-1.2,4.36,4.36,0,0,1-.4-1.8,4.14,4.14,0,0,1,.6-2.3,4.53,4.53,0,0,1,1.8-1.5,7.63,7.63,0,0,1,2.7-.5,7.8,7.8,0,0,1,2.2.3,9.75,9.75,0,0,1,2.2.8l-1,2.5c-.7-.3-1.3-.5-1.9-.7a4.68,4.68,0,0,0-1.7-.2,3,3,0,0,0-1,.2,1,1,0,0,0-.6.5,1.88,1.88,0,0,0-.2.8,1.22,1.22,0,0,0,.3.9,3.51,3.51,0,0,0,.9.7c.4.2.9.5,1.6.8a18,18,0,0,1,2,1.1A5.71,5.71,0,0,1,52.2,17,14.6,14.6,0,0,1,52.5,19.2Z"/><path class="cls-1" d="M64.6,11.9V23.4H62.2l-.4-1.5h-.2a4.3,4.3,0,0,1-.9,1,2.57,2.57,0,0,1-1.2.5,5.9,5.9,0,0,1-1.4.2,4.64,4.64,0,0,1-2.1-.4,2.73,2.73,0,0,1-1.4-1.4,5.68,5.68,0,0,1-.5-2.4V11.9h3.1v6.7a3.58,3.58,0,0,0,.4,1.9,1.68,1.68,0,0,0,1.4.6,2.08,2.08,0,0,0,2.3-1.7,12.48,12.48,0,0,0,.2-2.1V11.9Z"/><path class="cls-1" d="M73.6,11.7a4.36,4.36,0,0,1,3,1,4.26,4.26,0,0,1,1.1,3.2v7.5H74.6V16.7a3.58,3.58,0,0,0-.4-1.9,1.68,1.68,0,0,0-1.4-.6,2,2,0,0,0-2,1,7,7,0,0,0-.5,2.8v5.4H67.2V11.9h2.4l.4,1.5h.2a4.3,4.3,0,0,1,.9-1,2.57,2.57,0,0,1,1.2-.5A2.74,2.74,0,0,1,73.6,11.7Z"/><path class="cls-1" d="M88.1,20a3.38,3.38,0,0,1-.6,2,4,4,0,0,1-1.6,1.2,7,7,0,0,1-2.7.4,12.48,12.48,0,0,1-2.1-.2,10.93,10.93,0,0,1-1.7-.5V20.3a11.76,11.76,0,0,0,2,.7,6.8,6.8,0,0,0,1.9.3,2.27,2.27,0,0,0,1.3-.3.75.75,0,0,0,.4-.7.76.76,0,0,0-.2-.5c-.1-.2-.3-.3-.7-.5a11.6,11.6,0,0,0-1.6-.8,15,15,0,0,1-1.8-.9,2.59,2.59,0,0,1-1-1.1,3.81,3.81,0,0,1-.3-1.6,2.62,2.62,0,0,1,1.2-2.4,6.18,6.18,0,0,1,3.3-.8,12.31,12.31,0,0,1,2,.2,9.61,9.61,0,0,1,2,.7L87,14.8c-.6-.2-1.1-.4-1.6-.6a3.89,3.89,0,0,0-1.5-.2,2.15,2.15,0,0,0-1,.2.6.6,0,0,0-.3.6c0,.2.1.3.2.5a6.82,6.82,0,0,0,.7.5c.3.2.9.4,1.5.7a13.76,13.76,0,0,1,1.7.8,3.84,3.84,0,0,1,1.1,1.1A5,5,0,0,1,88.1,20Z"/><path class="cls-1" d="M92.8,7.4v3.3a8.08,8.08,0,0,1-.1,1.6c0,.5-.1.9-.1,1.1h.2a2.84,2.84,0,0,1,.9-1,2.7,2.7,0,0,1,1.1-.5,5.85,5.85,0,0,1,1.3-.2,5.09,5.09,0,0,1,2.2.4,2.73,2.73,0,0,1,1.4,1.4,5.36,5.36,0,0,1,.5,2.4v7.5H97.1V16.7a3.56,3.56,0,0,0-.5-1.9,1.68,1.68,0,0,0-1.4-.6,2.08,2.08,0,0,0-2.3,1.7,6.82,6.82,0,0,0-.2,2.1v5.4H89.6V7.4Z"/><path class="cls-1" d="M104.2,7.4a2.13,2.13,0,0,1,1.2.3,1.36,1.36,0,0,1,.5,1.2,1.36,1.36,0,0,1-.5,1.2,2.55,2.55,0,0,1-2.4,0,1.36,1.36,0,0,1-.5-1.2,1.36,1.36,0,0,1,.5-1.2A2.38,2.38,0,0,1,104.2,7.4Zm1.6,4.5V23.4h-3.1V11.9Z"/><path class="cls-1" d="M114.8,11.7a4.36,4.36,0,0,1,3,1,4.26,4.26,0,0,1,1.1,3.2v7.5h-3.1V16.7a3.58,3.58,0,0,0-.4-1.9,1.68,1.68,0,0,0-1.4-.6,2,2,0,0,0-2,1,7,7,0,0,0-.5,2.8v5.4h-3.1V11.9h2.4l.4,1.5h.2a4.3,4.3,0,0,1,.9-1,2.57,2.57,0,0,1,1.2-.5A2.55,2.55,0,0,1,114.8,11.7Z"/><path class="cls-1" d="M126,11.7a5.4,5.4,0,0,1,2.7.6,3.92,3.92,0,0,1,1.8,1.8,6.09,6.09,0,0,1,.6,2.8v1.5h-7.4a2.75,2.75,0,0,0,2.9,2.9,12.31,12.31,0,0,0,2-.2c.6-.2,1.2-.4,1.9-.7v2.4a6.36,6.36,0,0,1-1.8.6,14,14,0,0,1-2.3.2,7.45,7.45,0,0,1-3.1-.6,4.84,4.84,0,0,1-2.1-1.9,6.71,6.71,0,0,1-.8-3.3,7.12,7.12,0,0,1,.7-3.4,4.61,4.61,0,0,1,1.9-2A6,6,0,0,1,126,11.7Zm0,2.2a2,2,0,0,0-1.5.6,3,3,0,0,0-.7,1.8h4.4a2.13,2.13,0,0,0-.3-1.2,2.18,2.18,0,0,0-.7-.9A2.13,2.13,0,0,0,126,13.9Z"/><path class="cls-2" d="M48,27.6a10.62,10.62,0,0,1,3.4.5,3.82,3.82,0,0,1,2,1.5,4.87,4.87,0,0,1,.6,2.5,3.42,3.42,0,0,1-.4,1.8,6.42,6.42,0,0,1-1,1.3,6.71,6.71,0,0,1-1.4.9l4.4,6.5H52.1l-3.6-5.8H46.8v5.8H43.6v-15Zm-.3,2.6h-1v4.1h1a4.35,4.35,0,0,0,2.3-.5,1.86,1.86,0,0,0,.7-1.6,1.58,1.58,0,0,0-.7-1.5A4.35,4.35,0,0,0,47.7,30.2Z"/><path class="cls-2" d="M61.1,31a5.4,5.4,0,0,1,2.7.6,4.45,4.45,0,0,1,1.8,1.8,6.09,6.09,0,0,1,.6,2.8v1.5H58.8a2.75,2.75,0,0,0,2.9,2.9,12.31,12.31,0,0,0,2-.2c.6-.2,1.2-.4,1.9-.7v2.4a6.36,6.36,0,0,1-1.8.6,14,14,0,0,1-2.3.2,7.45,7.45,0,0,1-3.1-.6,4.84,4.84,0,0,1-2.1-1.9,6.71,6.71,0,0,1-.8-3.3,7.12,7.12,0,0,1,.7-3.4,4.61,4.61,0,0,1,1.9-2A6.3,6.3,0,0,1,61.1,31Zm.1,2.2a2,2,0,0,0-1.5.6,3,3,0,0,0-.7,1.8h4.3a2.13,2.13,0,0,0-.3-1.2,2.18,2.18,0,0,0-.7-.9A1.8,1.8,0,0,0,61.2,33.2Z"/><path class="cls-2" d="M72.7,30.9a5.22,5.22,0,0,1,3.5,1A3.85,3.85,0,0,1,77.4,35v7.7H75.3l-.6-1.6h-.1a9.43,9.43,0,0,1-1,1,2.28,2.28,0,0,1-1.2.6,7,7,0,0,1-1.6.2,3.42,3.42,0,0,1-1.8-.4,3.74,3.74,0,0,1-1.3-1.2,3.94,3.94,0,0,1-.5-2,3,3,0,0,1,1.3-2.7,7.62,7.62,0,0,1,3.9-1l2-.1V35a1.73,1.73,0,0,0-.5-1.3,1.84,1.84,0,0,0-1.3-.4,7.77,7.77,0,0,0-1.6.2c-.5.2-1.1.4-1.6.6l-1-2.1a11.92,11.92,0,0,1,2-.8A8.52,8.52,0,0,1,72.7,30.9Zm1.7,6.4H73.2a3.58,3.58,0,0,0-2.1.5,1.61,1.61,0,0,0-.6,1.3,1.05,1.05,0,0,0,.4,1,1.8,1.8,0,0,0,1.1.3,2.52,2.52,0,0,0,1.7-.6,2.06,2.06,0,0,0,.7-1.7Z"/><path class="cls-2" d="M83.5,42.9a3.75,3.75,0,0,1-3.1-1.5A7,7,0,0,1,79.2,37a7.11,7.11,0,0,1,1.2-4.5A3.93,3.93,0,0,1,83.6,31a5.9,5.9,0,0,1,1.4.2,10.91,10.91,0,0,1,1.1.6,2.36,2.36,0,0,1,.8.9H87c0-.2-.1-.5-.1-1a5.7,5.7,0,0,1-.1-1.3V26.7h3.1v16H87.5l-.6-1.5h-.1a5.5,5.5,0,0,1-.7.9,2.38,2.38,0,0,1-1.1.6A7.72,7.72,0,0,1,83.5,42.9Zm1.1-2.5a2,2,0,0,0,1.8-.8,4.53,4.53,0,0,0,.6-2.3V37a6,6,0,0,0-.5-2.6,2,2,0,0,0-1.9-.9,1.8,1.8,0,0,0-1.6.9,4.48,4.48,0,0,0-.7,2.6,4.18,4.18,0,0,0,.6,2.5A2,2,0,0,0,84.6,40.4Z"/><path class="cls-2" d="M90.7,31.2h3.4l2.2,6.5c.1.2.1.4.2.6s.1.4.1.7.1.5.1.7h.1a3,3,0,0,1,.2-1c.1-.3.2-.6.3-1l2.1-6.5h3.4l-4.9,13a5.61,5.61,0,0,1-1.2,2,6.1,6.1,0,0,1-1.6,1.2,4.48,4.48,0,0,1-2,.4,2.22,2.22,0,0,1-.9-.1c-.3,0-.5-.1-.7-.1V45.1a4.33,4.33,0,0,0,.5.1h.7a2,2,0,0,0,1.1-.3,2.7,2.7,0,0,0,.8-.7,4.67,4.67,0,0,0,.5-1l.2-.6Z"/><path class="cls-1" d="M21.5,16.3A11.2,11.2,0,1,0,32.7,27.5,11.18,11.18,0,0,0,21.5,16.3ZM17.3,36.2a.89.89,0,0,1-.5-.8,1.83,1.83,0,0,1,.9-2.2,3.92,3.92,0,0,0,.8-1c.1-.1.3-.5.5-.5s.7-.1.8-.3.6-1.4.8-1.5.7-.8.4-1.2-.8-.4-1.3-.7-.6-1.1-.9-1.4a6.54,6.54,0,0,0-2.3-1.3c-.4-.2-.4-.2-.7.1s-1-.1-1.1-.5c0-.1-.2-.9-.1-1,.9-.6-.4-.4-.5-.7-.3-.8.7-1.3,1.3-1.4s.8,1.1,1.1,1c.1-.1.1-.6.1-.7.1-.4.2-.5.6-.6a6.94,6.94,0,0,1,1.3-.5c.6-.2,1-.1,1.4-.4.2-.1.3.1.5.1.4.1.5-.6.5-.8a.71.71,0,0,0-.2-.7c-.4-.3-1,0-1.3.3s-.8.3-.7-.3c0-.2.5-.5.7-.6s.3.1.5.1.5.2.8.2.7-.3.4-1h.4c.1.4-.3.8-.1,1.4.4,1.1.8.2,1.2-.4.1-.1.2-.1.5-.2.1,0,.4-.5.4-.6a8.79,8.79,0,0,1,2.8,1.2c-.4,0-.5-.1-.5.4,0,.2,0,.7.3.7s.3.3.7.4.1.4.3.7c.2.5-1,.7-1.2.7-.7.2.3,1.2.8,1.1.1,0,.6-.1.6-.3,0,0-.1-.6,0-.6a.45.45,0,0,1,.5,0c.7.4,1,1.3,1.8,1.5a.6.6,0,0,1,.4.1c.1.2.4.4.1.4-.5-.1-.7,0-1.1-.2a2.38,2.38,0,0,0-1.1-.6,5.28,5.28,0,0,0-1.3-.1,1.45,1.45,0,0,0-.7.2c-.2.1-.3.5-.5.5-1,.2-.8,1.2-.9,1.9-.1.3-.3,1.1,0,1.3.5.4,1,1.1,1.7,1.2.4.1,1.2-.2,1.4.1s.4-.2.4,0c.2.6-.2.9-.2,1.4,0,.8.5,1-.2,1.7s-.2,1.5-.6,2.4c-.2.4-.2,1-.5,1.2a10,10,0,0,1-2.1,1,9.89,9.89,0,0,1-4.2.4,17.42,17.42,0,0,1-2.2-.5c-.2-.1-.4-.1-.5-.2C17.5,36.3,17.4,36.3,17.3,36.2Zm-2.1-1.3h0a2.65,2.65,0,0,0-.6-.5l-.5-.5h0l-.1-.1a9.63,9.63,0,0,1-.8-11.2c.3.3-.2.9.4,1.3.3.2.5.1.5.4s.3.3.3.6c.1.6,1,.9.5,1.6a1.86,1.86,0,0,0-.5,2.1,2.41,2.41,0,0,0,.6.8c.4.4.4.2.4.7,0,.2.3.4.2.6-.1.4-.1.8-.2,1.2a4.66,4.66,0,0,0,1.1,3.9,8.34,8.34,0,0,1-1.2-.8c0-.1,0-.1-.1-.1Z"/><path class="cls-3" d="M25.9,20.5l-.1-3c-9,.3-14.7,8.4-14.7,8.4,3.1-10.8,14.6-12.5,14.6-12.5L25.6,10l6.5,5.1Z"/><path class="cls-4" d="M11.1,26.7a.37.37,0,0,1-.3-.1.81.81,0,0,1-.4-.9c2.7-9.6,12-12.4,14.5-12.9L24.8,10a.84.84,0,0,1,.4-.7.75.75,0,0,1,.8.1l6.5,5.1a.6.6,0,0,1,.3.6.86.86,0,0,1-.3.6l-6.2,5.4a.75.75,0,0,1-.8.1.67.67,0,0,1-.4-.7L25,18.3c-8.1.7-13.3,8-13.3,8.1A.71.71,0,0,1,11.1,26.7ZM26.4,11.6v1.8a.87.87,0,0,1-.6.8c-.1,0-8,1.3-12.1,7.9a19.21,19.21,0,0,1,12.1-5.3.68.68,0,0,1,.7.7v1.4l4.3-3.8Z"/><path class="cls-3" d="M16.31,34.46l-.18,3c9,.56,15.43-7,15.43-7-4.12,10.46-15.73,11-15.73,11l-.22,3.39-6-5.7Z"/><path class="cls-5" d="M31.64,29.71a.39.39,0,0,1,.29.12.81.81,0,0,1,.31.94C28.63,40.07,19.11,42,16.57,42.22L16.4,45a.84.84,0,0,1-.46.66.76.76,0,0,1-.79-.18l-6-5.7a.6.6,0,0,1-.24-.62.89.89,0,0,1,.35-.57L16,33.83a.76.76,0,0,1,.81,0,.67.67,0,0,1,.33.74L17,36.74c8.13.08,14-6.69,14-6.79A.72.72,0,0,1,31.64,29.71ZM15,43.27l.18-1.79a.85.85,0,0,1,.67-.74c.1,0,8.09-.53,12.8-6.7a19.21,19.21,0,0,1-12.55,4.11.76.76,0,0,1-.48-.24.77.77,0,0,1-.15-.52L15.56,36l-4.64,3.37Z"/></svg>