<?xml version="1.0" encoding="utf-8"?>
<!-- Generator: Adobe Illustrator 24.2.3, SVG Export Plug-In . SVG Version: 6.00 Build 0)  -->
<svg version="1.1" id="Layer_1" xmlns="http://www.w3.org/2000/svg" xmlns:xlink="http://www.w3.org/1999/xlink" x="0px" y="0px"
	 viewBox="0 0 600 471.1" style="enable-background:new 0 0 600 471.1;" xml:space="preserve">
<style type="text/css">
	.st0{opacity:0.18;fill:#0077D8;enable-background:new    ;}
	.st1{fill:#0077D8;}
	.st2{fill:url(#SVGID_1_);}
	.st3{fill:url(#SVGID_2_);}
	.st4{fill:url(#SVGID_3_);}
	.st5{fill:url(#SVGID_4_);}
	.st6{fill:url(#SVGID_5_);}
	.st7{fill:#FFFFFF;}
	.st8{fill:url(#SVGID_6_);}
	.st9{fill:url(#SVGID_7_);}
	.st10{fill:url(#SVGID_8_);}
	.st11{fill:url(#SVGID_9_);}
	.st12{fill:url(#SVGID_10_);}
	.st13{fill:url(#SVGID_11_);}
	.st14{fill:#FFBBAB;}
	.st15{fill:#282328;}
	.st16{fill:#473F47;}
	.st17{fill:url(#SVGID_12_);}
	.st18{opacity:0.1;fill:#020202;enable-background:new    ;}
	.st19{fill:#FC682D;}
	.st20{fill:#E0A194;}
	.st21{fill:url(#SVGID_13_);}
</style>
<g>
	<path class="st0" d="M421.5,77.3c11.4,21.1,23,44.3,31.8,66.4c9,22.5,28.3,41.5,46,57.3c19.6,17.4,40.9,32.9,59.4,51.4
		c18.5,18.6,34.3,41,39.4,66.8c5.8,29-2.6,59.4-17.1,85.3c-4.5,8.5-10.3,16.3-17.1,23c-7.1,6.6-15.8,11.5-24.5,15.9
		c-23.3,11.6-47.8,20.8-73.8,24.3c-26.9,3.6-54.4,2-81.3-1.3c-36.2-4.5-72.1-12-108.5-14.3c-26.3-1.6-52.5-0.3-78.8,1.8
		c-28,2.1-56.7,5-84.1-1.6c-35.9-8.5-67-33.3-86.1-65c-16.6-27.6-35.2-80.1-20.6-111C21.7,243.4,63.5,221,91,199.4
		c11-8.8,22.1-18.4,28.4-31c7-14.1,7.6-30.4,10.5-45.8c9.5-50.2,47.4-93.9,95.8-110.5c67.9-23.1,150-7.8,190,55.8
		C418,70.9,419.9,74.2,421.5,77.3z"/>
	<polygon class="st1" points="463.3,386.2 450.8,386.2 450.8,385 462.2,385 462.2,282.7 418,282.7 418,131.3 377.6,131.3 
		377.6,130.2 419.2,130.2 419.2,281.6 463.3,281.6 	"/>
	<polygon class="st1" points="212.1,211.2 211,211.2 211,175 239.2,175 239.2,142.4 240.3,142.4 240.3,176.1 212.1,176.1 	"/>
	<path class="st1" d="M203.8,363.4H349c9.1,0,16.5,7.4,16.5,16.5v28.9c0,9.1-7.4,16.5-16.5,16.5H203.8c-9.1,0-16.5-7.4-16.5-16.5
		v-28.9C187.2,370.8,194.6,363.4,203.8,363.4z"/>
	<path class="st1" d="M203.8,289.8H349c9.1,0,16.5,7.4,16.5,16.5v28.9c0,9.1-7.4,16.5-16.5,16.5H203.8c-9.1,0-16.5-7.4-16.5-16.5
		v-28.9C187.2,297.1,194.6,289.8,203.8,289.8z"/>
	
		<linearGradient id="SVGID_1_" gradientUnits="userSpaceOnUse" x1="283.4334" y1="811.5745" x2="43.2788" y2="789.4475" gradientTransform="matrix(1.0333 0 0 1.0333 8.0994 -441.9814)">
		<stop  offset="1.000000e-02" style="stop-color:#000000"/>
		<stop  offset="0.13" style="stop-color:#000000;stop-opacity:0.69"/>
		<stop  offset="0.25" style="stop-color:#000000;stop-opacity:0.32"/>
		<stop  offset="1" style="stop-color:#000000;stop-opacity:0"/>
	</linearGradient>
	<path class="st2" d="M203.8,363.4H349c9.1,0,16.5,7.4,16.5,16.5v28.9c0,9.1-7.4,16.5-16.5,16.5H203.8c-9.1,0-16.5-7.4-16.5-16.5
		v-28.9C187.2,370.8,194.6,363.4,203.8,363.4z"/>
	
		<linearGradient id="SVGID_2_" gradientUnits="userSpaceOnUse" x1="331.4643" y1="738.8022" x2="-51.6975" y2="735.5758" gradientTransform="matrix(1.0333 0 0 1.0333 8.0994 -441.9814)">
		<stop  offset="1.000000e-02" style="stop-color:#000000"/>
		<stop  offset="0.13" style="stop-color:#000000;stop-opacity:0.69"/>
		<stop  offset="0.25" style="stop-color:#000000;stop-opacity:0.32"/>
		<stop  offset="1" style="stop-color:#000000;stop-opacity:0"/>
	</linearGradient>
	<path class="st3" d="M203.8,289.8H349c9.1,0,16.5,7.4,16.5,16.5v28.9c0,9.1-7.4,16.5-16.5,16.5H203.8c-9.1,0-16.5-7.4-16.5-16.5
		v-28.9C187.2,297.1,194.6,289.8,203.8,289.8z"/>
	<path class="st1" d="M221.3,363.4h145.2c9.1,0,16.5,7.4,16.5,16.5v28.9c0,9.1-7.4,16.5-16.5,16.5H221.3c-9.1,0-16.5-7.4-16.5-16.5
		v-28.9C204.9,370.8,212.3,363.4,221.3,363.4z"/>
	<path class="st1" d="M383,306.2v28.9c0,9.1-7.4,16.5-16.4,16.5h-0.1H221.4c-9.1,0-16.5-7.4-16.5-16.5l0,0v-28.9
		c0-9.1,7.4-16.5,16.5-16.5l0,0h145.1C375.6,289.7,383,297.1,383,306.2L383,306.2z"/>
	
		<linearGradient id="SVGID_3_" gradientUnits="userSpaceOnUse" x1="324.2253" y1="738.3003" x2="434.4319" y2="772.0947" gradientTransform="matrix(1.0333 0 0 1.0333 -4.1662 -448.2021)">
		<stop  offset="1.000000e-02" style="stop-color:#000000"/>
		<stop  offset="0.13" style="stop-color:#000000;stop-opacity:0.69"/>
		<stop  offset="0.25" style="stop-color:#000000;stop-opacity:0.32"/>
		<stop  offset="1" style="stop-color:#000000;stop-opacity:0"/>
	</linearGradient>
	<path class="st4" d="M383,311.1v24c0,5.1-2.4,10-6.5,13.1c-0.1-5.1-0.4-19.4,0-25.6C376.9,318,379.3,313.7,383,311.1z"/>
	<path class="st1" d="M203.8,211.2H349c9.1,0,16.5,7.4,16.5,16.5v28.9c0,9.1-7.4,16.5-16.5,16.5H203.8c-9.1,0-16.5-7.4-16.5-16.5
		v-28.9C187.2,218.5,194.6,211.2,203.8,211.2z"/>
	
		<linearGradient id="SVGID_4_" gradientUnits="userSpaceOnUse" x1="337.6109" y1="670.2394" x2="-47.707" y2="629.7778" gradientTransform="matrix(1.0333 0 0 1.0333 8.0994 -441.9814)">
		<stop  offset="1.000000e-02" style="stop-color:#000000"/>
		<stop  offset="0.13" style="stop-color:#000000;stop-opacity:0.69"/>
		<stop  offset="0.25" style="stop-color:#000000;stop-opacity:0.32"/>
		<stop  offset="1" style="stop-color:#000000;stop-opacity:0"/>
	</linearGradient>
	<path class="st5" d="M203.8,211.2H349c9.1,0,16.5,7.4,16.5,16.5v28.9c0,9.1-7.4,16.5-16.5,16.5H203.8c-9.1,0-16.5-7.4-16.5-16.5
		v-28.9C187.2,218.5,194.6,211.2,203.8,211.2z"/>
	<path class="st1" d="M221.3,211.2h145.2c9.1,0,16.5,7.4,16.5,16.5v28.9c0,9.1-7.4,16.5-16.5,16.5H221.3c-9.1,0-16.5-7.4-16.5-16.5
		v-28.9C204.9,218.5,212.3,211.2,221.3,211.2z"/>
	
		<linearGradient id="SVGID_5_" gradientUnits="userSpaceOnUse" x1="333.9288" y1="622.301" x2="264.3062" y2="718.3628" gradientTransform="matrix(1.0333 0 0 1.0333 -4.1662 -448.2021)">
		<stop  offset="1.000000e-02" style="stop-color:#000000"/>
		<stop  offset="0.13" style="stop-color:#000000;stop-opacity:0.69"/>
		<stop  offset="0.25" style="stop-color:#000000;stop-opacity:0.32"/>
		<stop  offset="1" style="stop-color:#000000;stop-opacity:0"/>
	</linearGradient>
	<path class="st6" d="M335.1,253.4c-1.4,0.6-2.1,2-1.9,3.5c0.1,1.4,0.9,2.8,1,4.1c0.6,4-2.8,8-6.8,9c-5.3,1.4-10.5-1.3-15.1-4
		c-0.6-0.3-1.1-0.6-1.6-1.1c-0.8-1-1.1-2.1-1.3-3.4c-0.5-2.3-0.8-4.6-0.9-7c0-5.4,2.4-10.5,2.5-15.8c0.1-7.5-4-14.4-10.6-17.9
		c-2.8-1.1-5.5-2.1-8.3-3c-2.5-0.9-4.9-1.9-7.3-3.1c-1.5-0.8-3-1.9-3.1-3.5c2.4-1.1,5.1-1.5,7.8-1.4h45.8c0.6,0,1.1,0,1.6,0.3
		c0.5,0.4,0.9,1,1.1,1.6c3.1,7.4,2.8,15.5,3.4,23.3c0.3,3.8,1,7.5,2.1,11.3c0.6,2,2.8,5.8,1.4,7.9
		C342.6,258.1,337.9,252.7,335.1,253.4z"/>
	<path class="st7" d="M377.5,121.6c0,11.4-9.3,20.8-20.8,20.8l0,0h-142c-11.4,0.4-21-8.8-21.3-20.1c-0.4-11.4,8.8-21,20.1-21.3
		c0.4,0,0.8,0,1.1,0h4.8c-6.1-21.8,6.5-44.3,28.3-50.4c3.6-1,7.3-1.5,11-1.5h12.1c15.3,0,29.3,8.5,36.3,22c3.5-1.8,7.3-2.8,11.1-2.6
		h3.1c13.5,0,24.5,11,24.5,24.5l0,0v1.3c0,2.3-0.4,4.5-1,6.8h11.8C368.4,100.9,377.5,110.2,377.5,121.6z"/>
	
		<linearGradient id="SVGID_6_" gradientUnits="userSpaceOnUse" x1="424.1709" y1="566.9767" x2="130.0522" y2="535.1395" gradientTransform="matrix(1.0333 0 0 1.0333 -4.1662 -448.2021)">
		<stop  offset="1.000000e-02" style="stop-color:#000000"/>
		<stop  offset="0.13" style="stop-color:#000000;stop-opacity:0.69"/>
		<stop  offset="0.25" style="stop-color:#000000;stop-opacity:0.32"/>
		<stop  offset="1" style="stop-color:#000000;stop-opacity:0"/>
	</linearGradient>
	<path class="st8" d="M274.7,121.7c0.8-1.3,1.4-2.5,1.8-3.9c1.5-4.1,3.3-8.3,5.4-12.3c0.9-1.9,2-3.6,3.6-5c2.9-2.4,6.9-2.4,10.6-2.4
		c2.5,0,5.3,0.3,6.8,2.3c0.8,1.3,1.3,2.8,1.1,4.4c0.8,12.6-0.6,25.4-4.1,37.7c-6.8,0.4-13.6,0.6-20.4,0.9
		c-4.6,0.3-13.9,2.4-17.6-0.9C251.9,134,271.4,126.3,274.7,121.7z"/>
	<path class="st7" d="M430.4,348.3c-2,0-3.6-1.6-3.8-3.6v-24c0-8.8-7.1-15.8-15.8-15.8c-8.8,0-15.8,7.1-15.8,15.8v24
		c0,2-1.6,3.8-3.8,3.8c-2,0-3.8-1.6-3.8-3.8v-24c0-12.9,10.4-23.3,23.3-23.3c12.9,0,23.3,10.4,23.3,23.3l0,0v24
		C434,346.6,432.4,348.3,430.4,348.3z"/>
	
		<linearGradient id="SVGID_7_" gradientUnits="userSpaceOnUse" x1="403.1365" y1="788.9305" x2="400.7204" y2="732.6727" gradientTransform="matrix(1.0333 0 0 1.0333 -4.1662 -448.2021)">
		<stop  offset="1.000000e-02" style="stop-color:#000000"/>
		<stop  offset="0.13" style="stop-color:#000000;stop-opacity:0.69"/>
		<stop  offset="0.25" style="stop-color:#000000;stop-opacity:0.32"/>
		<stop  offset="1" style="stop-color:#000000;stop-opacity:0"/>
	</linearGradient>
	<path class="st9" d="M434.2,320.6v24c0,1.3-0.8,2.5-1.9,3.1c-0.6,0.4-1.3,0.5-1.9,0.5c-2,0-3.8-1.6-3.8-3.6v-24
		c0-8-6-14.8-13.9-15.6c-0.6-0.1-1.3-0.1-1.9-0.1c-8.8,0-15.8,7.1-15.8,15.8v24c0,1.3-0.8,2.5-1.9,3.1c-0.6,0.4-1.3,0.5-1.9,0.5
		c-2,0-3.8-1.6-3.8-3.8v-24c0-12.9,10.4-23.3,23.3-23.3c0.6,0,1.3,0,1.9,0.1C424.8,298.5,434.2,308.5,434.2,320.6z"/>
	
		<linearGradient id="SVGID_8_" gradientUnits="userSpaceOnUse" x1="399.8522" y1="817.1744" x2="406.3358" y2="713.5583" gradientTransform="matrix(1.0333 0 0 1.0333 -4.1662 -448.2021)">
		<stop  offset="1.000000e-02" style="stop-color:#000000"/>
		<stop  offset="0.13" style="stop-color:#000000;stop-opacity:0.69"/>
		<stop  offset="0.25" style="stop-color:#000000;stop-opacity:0.32"/>
		<stop  offset="1" style="stop-color:#000000;stop-opacity:0"/>
	</linearGradient>
	<path class="st10" d="M434.2,320.6v24c0.6,1,0.3,2.3-0.8,2.9c-1,0.6-2.3,0.3-2.9-0.8c-0.4-0.6-0.4-1.5,0-2.1v-24
		c0-8.8-7.1-15.8-15.8-15.8c-0.6,0-1.3,0-1.9,0.1c-0.6-0.1-1.3-0.1-1.9-0.1c-8.8,0-15.8,7.1-15.8,15.8v24c0.6,1,0.3,2.3-0.8,2.9
		s-2.3,0.3-2.9-0.8c-0.4-0.6-0.4-1.5,0-2.1v-24c-1-11.8,7.8-22.1,19.5-23.1s22.1,7.8,23.1,19.5C434.2,318.1,434.2,319.4,434.2,320.6
		L434.2,320.6z"/>
	<path class="st1" d="M383,344.5h53.4c7.9,0,14.3,6.4,14.3,14.3v53.4c0,7.9-6.4,14.3-14.3,14.3H383c-7.9,0-14.3-6.4-14.3-14.3v-53.4
		C368.8,351,375.1,344.5,383,344.5z"/>
	
		<linearGradient id="SVGID_9_" gradientUnits="userSpaceOnUse" x1="231.1677" y1="748.7799" x2="686.0624" y2="899.3258" gradientTransform="matrix(1.0333 0 0 1.0333 8.0994 -441.9814)">
		<stop  offset="1.000000e-02" style="stop-color:#000000"/>
		<stop  offset="0.13" style="stop-color:#000000;stop-opacity:0.69"/>
		<stop  offset="0.25" style="stop-color:#000000;stop-opacity:0.32"/>
		<stop  offset="1" style="stop-color:#000000;stop-opacity:0"/>
	</linearGradient>
	<path class="st11" d="M383,344.6h53.4c7.9,0,14.3,6.4,14.3,14.3v53.4c0,7.9-6.4,14.3-14.3,14.3H383c-7.9,0-14.3-6.4-14.3-14.3
		v-53.4C368.8,351,375.1,344.6,383,344.6z"/>
	
		<linearGradient id="SVGID_10_" gradientUnits="userSpaceOnUse" x1="260.1843" y1="756.079" x2="651.1755" y2="885.4766" gradientTransform="matrix(1.0333 0 0 1.0333 8.0994 -441.9814)">
		<stop  offset="1.000000e-02" style="stop-color:#000000"/>
		<stop  offset="0.13" style="stop-color:#000000;stop-opacity:0.69"/>
		<stop  offset="0.25" style="stop-color:#000000;stop-opacity:0.32"/>
		<stop  offset="1" style="stop-color:#000000;stop-opacity:0"/>
	</linearGradient>
	<path class="st12" d="M397.3,344.6h39.3c7.9,0,14.3,6.4,14.3,14.3v53.4c0,7.9-6.4,14.3-14.3,14.3h-39.3c-7.9,0-14.3-6.4-14.3-14.3
		v-53.4C383,351,389.4,344.6,397.3,344.6z"/>
	
		<linearGradient id="SVGID_11_" gradientUnits="userSpaceOnUse" x1="402.2075" y1="805.6561" x2="433.7847" y2="805.6561" gradientTransform="matrix(1.0333 0 0 1.0333 -4.1662 -448.2021)">
		<stop  offset="1.000000e-02" style="stop-color:#000000"/>
		<stop  offset="0.13" style="stop-color:#000000;stop-opacity:0.69"/>
		<stop  offset="0.25" style="stop-color:#000000;stop-opacity:0.32"/>
		<stop  offset="1" style="stop-color:#000000;stop-opacity:0"/>
	</linearGradient>
	<path class="st13" d="M416.8,382.9L416.8,382.9c-2.8-0.9-4.3-3.8-3.4-6.5c0.9-2.8,3.8-4.3,6.5-3.4c2.8,0.9,4.3,3.8,3.4,6.5
		c-0.5,1.6-1.8,2.9-3.4,3.4l4,12.9H413L416.8,382.9z"/>
	<circle class="st7" cx="232.8" cy="242.8" r="7"/>
	<circle class="st7" cx="253.8" cy="242.8" r="7"/>
	<circle class="st7" cx="274.8" cy="242.8" r="7"/>
	<circle class="st7" cx="232.8" cy="320.7" r="7"/>
	<circle class="st7" cx="253.8" cy="320.7" r="7"/>
	<circle class="st7" cx="274.8" cy="320.7" r="7"/>
	<circle class="st7" cx="232.8" cy="398.7" r="7"/>
	<circle class="st7" cx="253.8" cy="398.7" r="7"/>
	<circle class="st7" cx="274.8" cy="398.7" r="7"/>
	<path class="st14" d="M339.6,238.2c-0.3,1.9-0.3,3.9,0.4,5.8c0.8,1.8,2,3.3,3.6,4.3c3.4,2.4,7.6,3.4,11.8,2.8
		c0.5,0,1.1-0.3,1.5-0.6c0.3-0.4,0.4-0.8,0.4-1.1c0-2.3-0.9-4.4-2.4-6c-1.5-1.6-2.8-3.5-3.6-5.5c-1.4-3.9,1.3-13.5-5.9-12.9
		C339.4,225.4,340.1,234,339.6,238.2z"/>
	<path class="st15" d="M313.7,184.9c5.4,0.3,10.9,0.8,16.3,1.6c9.5,1.5,15.5,5.5,17.9,15c2.1,8.6,4.3,17.5,4.3,26.4
		c0.3,2.1-0.4,4.3-1.8,5.9c-2.3,2.3-6.1,1.4-8.4-0.9c-2.1-2.3-3-5.4-3.9-8.4c-1.5-5.1-3.4-17.1-8.8-18.4c-9.1-2.3-18.5,3.5-27.4,0
		c-3.1-1.1-6.3-2.6-9-4.5c-2.8-1.9-5-4.6-6.3-7.8c-0.6-1.6-0.9-3.4-0.9-5.3c-0.1-1.5-0.1-2.9,0.1-4.4c0.3-1.6,0.6-1.5,2.3-1.5
		c2.9,0,5.8,0.3,8.5,0.5C302.3,183.9,308.1,184.6,313.7,184.9z"/>
	<path class="st1" d="M337.9,244.7c0,0-1.3,2.3-0.3,3.9c1,1.6,12.5,11,21.6,5.8c9.3-5.1-10.5-8.5-10.5-8.5L337.9,244.7z"/>
	<path class="st7" d="M339.1,239.2c0.9-0.3,1.8,0.1,2.1,0.9c1.4,2.1,3.8,3.4,6.4,3.3c2.8-0.3,4.4-3.3,5.6-3.1
		c1.4,0.1,7.8,7.3,7.9,10c0.1,2.8-3.9,4.1-8,3.9s-13-4.4-14.5-6.8C337.5,244.7,337.6,241.6,339.1,239.2z"/>
	<path class="st14" d="M319.6,247.9c-0.6,1.9-0.9,3.8-0.6,5.8c0.4,1.9,1.4,3.5,2.9,4.9c3,2.9,7,4.6,11.1,4.6c0.5,0,1.1-0.1,1.6-0.4
		c0.3-0.3,0.5-0.6,0.6-1.1c0.4-2.3-0.1-4.5-1.4-6.4c-1.3-1.9-2.1-3.9-2.8-6c-0.6-4.1,3.5-13.1-3.6-13.6
		C321.3,235.3,320.7,243.9,319.6,247.9z"/>
	<path class="st16" d="M302.7,191.1c5.4,1,10.6,2.4,15.8,4.1c9,3,14.4,7.9,15.1,17.8c0.6,8.9,1.4,18-0.1,26.9
		c-0.1,2.1-1.1,4.1-2.6,5.5c-2.5,1.9-6.4,0.4-8.1-2.1c-1.8-2.5-2.1-5.8-2.5-8.9c-0.6-5.3-0.5-17.4-5.6-19.6
		c-5.4-2.4-11.4-1.6-17-1.9c-3-0.1-6.1-0.8-9-0.8c-9.8-0.3-11.8-7.4-12.1-8.6c-1.3-3.6-1.8-7.5-1.8-11.3c0.1-1.9,0.4-3.8,0.9-5.5
		c0.4-1.8,0.4-1.9,2.3-1.6c2.9,0.5,5.6,1.1,8.4,1.9C291.7,188.3,297.1,190,302.7,191.1z"/>
	<path class="st1" d="M316.7,254.1c0,0-1.6,2-0.9,3.8c0.6,1.8,10.5,12.9,20.4,9.3c9.9-3.6-8.9-10.1-8.9-10.1L316.7,254.1z"/>
	<path class="st7" d="M318.8,248.8c0.9-0.1,1.8,0.4,2,1.3c1,2.4,3.3,3.9,5.8,4.3c2.9,0.1,4.8-2.5,6.1-2.1c1.4,0.4,6.5,8.5,6.1,11
		c-0.4,2.5-4.5,3.5-8.5,2.5c-4-1-12.1-6.4-13.3-9C316.3,253.9,317,250.9,318.8,248.8z"/>
	<polygon class="st1" points="337.5,180.4 313,189.3 330.3,200 355.1,186 	"/>
	
		<linearGradient id="SVGID_12_" gradientUnits="userSpaceOnUse" x1="336.0256" y1="628.0175" x2="261.5401" y2="560.4133" gradientTransform="matrix(1.0333 0 0 1.0333 8.0994 -441.9814)">
		<stop  offset="1.000000e-02" style="stop-color:#000000"/>
		<stop  offset="0.13" style="stop-color:#000000;stop-opacity:0.69"/>
		<stop  offset="0.25" style="stop-color:#000000;stop-opacity:0.32"/>
		<stop  offset="1" style="stop-color:#000000;stop-opacity:0"/>
	</linearGradient>
	<polygon class="st17" points="337.5,180.4 313,189.3 330.3,200 355.1,186 	"/>
	<polygon class="st1" points="311.8,191.8 331,205 362.7,191.8 375,167.1 338.1,178.3 330.3,200 313,189.3 	"/>
	<path class="st7" d="M316,164.9c-1.9,1.1-3.9,1.6-5.5,0.4l-0.4-0.4c-2.5-2.5-3-7.9-2.9-11.9c0-1.6,0.1-3.3,0.4-5l9.6-11.8l5,22.5
		C320.5,161.2,318.3,163.2,316,164.9z"/>
	<path class="st7" d="M316,159.2c-0.1,1.1-0.3,2.3-0.4,3.4c-0.9,6-3.1,12-2.3,18.3c0.4,1.4,0.4,2.8-0.1,4.1c-0.6,1-1.8,1.8-2.9,2
		c-5.8,2.1-12,2.1-18.1,2.1c-4.6,0-11.3,0.4-15-2.6c-1.4-1.4-2.3-3.4-2.3-5.4c-0.6-6.5-0.6-13,0-19.4l0.3-2.5
		c0.5-5.9,1.3-11.6,2.3-17.4c0.8-4.1,1.8-8.6,4.9-11.4c4.3-3.6,11.8-5.4,17.3-5.6c1.8-0.1,3.6,0,5.4,0.5c2.4,0.8,4.8,2,6.8,3.5
		c2.5,1.8,4.6,3.1,5.6,6c1,3.3,1.5,6.6,1.6,10c0,3.3-0.4,6.4-1.3,9.5c-0.4,1.5-1,3-1.4,4.5C316.1,158.6,316.1,158.9,316,159.2z"/>
	<path class="st18" d="M286.3,189.8c-1.9,0.3-5.6-2-6.9-2.4c-0.8-0.3-1.5-0.8-2.3-1.1c-3.9-1.6-2.6-12.9-2.6-16
		c0.1-8.1-0.3-16.6,0.9-24.6c0.3-3.1,1.1-6.1,2.4-9c1.4-2.9,3.9-5,7-5.8c0.6-0.1,1.3-0.1,1.8,0c2.4,1,2.3,5.1,2.4,7.1
		c0,2,0.5,4,1.3,5.9c0.9,2,2.4,2.8,3.8,4.1c3.4,3.1,6,6.9,7.8,11.1c0.9,2.3,1.3,4.5,2,6.8c1.9,5,4.5,9.5,7.9,13.6
		c1.1,1.6,2.4,3.5,1.8,5.3c-0.6,1.3-1.8,2.1-3,2.6c-1.6,0.6-3.4,0.9-5.1,0.8c-4.1-0.5-7.3-3.9-10.9-5.8c-1.3-0.6-3.8-1.8-5.1-1.1
		c-1.4,0.6-2,2.6-2.1,3.9c-0.1,0.9,0.6,3.5,0.1,4.1C286.9,189.6,286.7,189.8,286.3,189.8z"/>
	<path class="st14" d="M309.1,120.8c-0.8,0.6-1.6,0.9-2.6,0.9c-0.8,0-1.6-0.1-2.4-0.4h-0.4c-0.1,0-0.3,0-0.4,0
		c-0.1,0.1-0.3,0.3-0.3,0.4c-0.4,1.5-0.6,3.1-0.8,4.8l0,0v0.9c0,0.3,0,0.6-0.3,0.9c-0.3,0.3-0.6,0.5-1,0.5c-0.8,0.1-1.5,0.1-2.3,0
		c-1.5-0.4-3-1.1-4.1-2.3c0.5-2.6,0.8-5.4,0.8-8.1c0-3.5-0.4-7.1,0.5-10.5c0.5-3.1,3.4-5.3,6.6-4.8c0.3,0,0.5,0.1,0.8,0.1
		c2.5,0.4,4.9,1.4,6.8,3c0.6,0.6,0.9,1.4,0.8,2.3c0,1.4,0.1,2.8,0,4.3c-0.1,1.4-0.3,3.1-0.4,4.8C310.3,118.6,310,119.8,309.1,120.8z
		"/>
	<path class="st19" d="M308.3,106.7c-1.8,0-3.8-0.5-5.5-0.1c-2.5,0.9-4,3.4-3.5,6c-0.8,0.1-0.6-1.1-1.1-1.6c-0.5-0.6-1.8,0-2,0.8
		c-0.1,0.9,0,1.8,0.4,2.5c0.4,1.6,0.3,3.3-0.4,4.8c-0.1,0.4-0.5,0.8-0.9,0.6c-0.4-0.1-0.5-0.9-0.8-1.1c-0.3-0.5-0.6-0.9-1-1.3
		c-0.8-0.9-1.6-1.6-2.3-2.4c-1.5-1.4-2.3-3.4-2.1-5.4c0.1-0.8,0.5-1.5,1.1-2.1c0.5-0.5,1-0.9,1.6-1.3c0.3-0.1,0.5-0.3,0.6-0.5
		c0-0.1,0-0.4,0-0.5c-0.1-2.1,1.1-4.1,3-5s3.9-1.4,6-1.3c1.4,0,2.6,0,4,0c1.1,0.1,2.3,0,3.3-0.3c-0.1-0.8-0.4-1.5-0.8-2.1
		c0.9,0.4,1.8,1,2.5,1.6c0-0.5,0-0.9-0.1-1.4c1.4,0.6,2.6,1.5,3.6,2.8c0.9,1.8,0.6,3.9-0.6,5.3c-1.3,1.3-3,2-4.8,2H308.3z"/>
	<path class="st20" d="M304.1,121.3h-0.4c-0.1,0-0.3,0-0.4,0c-0.1,0.1-0.3,0.3-0.3,0.4c-0.4,1.5-0.6,3.1-0.8,4.8l0,0
		c-2.8-1.4-4.1-4.4-3.4-7.4C300.6,120.1,302.2,120.8,304.1,121.3L304.1,121.3z"/>
	<path class="st14" d="M345.1,173.1c-1-0.5-2-1.4-3.1-1.4c-1.3,0-2.1,1.5-3.1,2.4c-1.1,1-2.5,1.5-4,1.4c-0.5,0-0.9-0.1-1.4-0.3
		c-1.9-0.5-3.5-1.8-4.6-3.3c0,0,2.9-3.3,3.4-3.5c1.3-0.8,3-0.6,4.4-1.4c1.4-0.9,2.9-1.8,4.4-2.4c3-1.3,6.5-1,9.4,0.8
		c0.4,0.3,0.8,0.6,0.5,1c-0.1,0.1-0.3,0.3-0.4,0.4l0,0c-1.6,0.6-3.4,0.9-5.1,0.5c1,0.5,2,1.1,2.8,1.9c0.4,0.4,0.8,1,0.4,1.3
		c-0.3,0.1-0.5,0.1-0.8,0l-3.9-0.9c1,0.8,1.8,1.8,2.4,2.8c0.1,0.1,0.1,0.4,0.1,0.6C346.5,173.4,345.6,173.4,345.1,173.1z"/>
	<path class="st20" d="M345.1,173.1c-1-0.5-2-1.4-3.1-1.4c-1.3,0-2.1,1.5-3.1,2.4c-1.1,1-2.5,1.5-4,1.4c-0.4-0.1-0.8-0.4-1-0.6
		c-0.3-0.1-0.4-0.4-0.5-0.6c0-0.5,0.3-1,0.8-1.1c0.5-0.1,1-0.3,1.6-0.3c0.9-0.1,1.6-0.6,2.1-1.3c0.4-0.6,0.8-1.3,1.3-1.6
		c0.4-0.1,0.9-0.3,1.3-0.3l1.8-0.1c0.3,0,0.5,0,0.8-0.1c0.3-0.1,0.4-0.4,0.4-0.6c0-0.3-0.4-0.5-0.6-0.6c-0.6-0.3-2.5-0.4-1.3-1
		c0.9-0.4,1.9-0.6,2.8-0.6c2-0.3,3.9-0.3,5.9,0c0.3,0,0.4,0,0.6,0.1l0,0c-1.6,0.6-3.4,0.9-5.1,0.5c1,0.5,2,1.1,2.8,1.9
		c0.4,0.4,0.8,1,0.4,1.3c-0.3,0.1-0.5,0.1-0.8,0l-3.9-0.9c1,0.8,1.8,1.8,2.4,2.8c0.1,0.1,0.1,0.4,0.1,0.6
		C346.5,173.4,345.6,173.4,345.1,173.1z"/>
	<path class="st7" d="M329.1,173.3c-3.9,0-7.8-0.8-11.4-2.1c-2.6-1-4.9-2.6-6.6-4.9c-0.3-0.3-0.4-0.6-0.5-1c-0.3-0.6-0.3-1.3,0-1.9
		c0.5-1.8,1.5-3.3,2.9-4.4c3.8-2.8,8.9-0.1,8.9-0.1s9.6,7.5,9.9,9c0.1,0.8-0.8,2.4-1.6,3.5C329.6,172.6,329.1,173.3,329.1,173.3z"/>
	<path class="st7" d="M283.7,131L283.7,131c4.8-0.9,9.3,2.1,10.3,6.9l4.5,23.1c0.9,4.8-2.1,9.3-6.9,10.3l0,0
		c-4.8,0.9-9.3-2.1-10.3-6.9l-4.5-23.1C275.9,136.5,278.9,131.8,283.7,131z"/>
	<path class="st18" d="M329.1,173.3c-3.9,0-7.8-0.8-11.4-2.1c-0.5-0.1-2.8-1.6-3.1-1.4c-0.1,0.1-0.3,0.3-0.3,0.5l-1.3,3.6
		c-0.8-0.5-1.3-1.4-1.3-2.3c-0.1-0.9,0-1.9-0.1-2.8c-0.3-1.4-0.8-2.8-1.4-4c-1.8-4.4-1.4-9.3-1.1-14l3.5,9.1
		c0.3,0.9,0.8,1.8,1.3,2.5c0.5,0.6,1,1.1,1.6,1.6c2.5,2.3,5.4,4,8.5,5.3c0.5,0.3,6.5,2.8,6.8,2.3
		C329.7,172.4,329.1,173.3,329.1,173.3z"/>
	<path class="st14" d="M330.8,192.5c-1-0.9-1.6-2.3-2.8-2.5c-1.3-0.4-2.5,0.9-3.6,1.6c-1.4,0.6-3,0.8-4.4,0.1
		c-0.5-0.1-0.9-0.4-1.3-0.6c-1.8-1.3-3.1-3-3.9-5.1c0,0,3.6-2.6,4-2.8c1.5-0.4,3.1,0.3,4.8,0c1.6-0.5,3.3-0.9,4.9-1.3
		c3.5-0.3,6.9,1.1,9.1,3.9c0.3,0.4,0.6,0.9,0.4,1.3c-0.1,0.1-0.3,0.3-0.4,0.3l0,0c-1.8,0.1-3.6-0.3-5.3-1.1c0.9,0.9,1.8,1.9,2.4,2.9
		c0.4,0.5,0.5,1.3,0,1.5c-0.3,0-0.5,0-0.8-0.3l-3.6-2.3c0.9,1.1,1.5,2.5,1.8,3.9c0.1,0.3,0.1,0.5,0,0.6
		C332.1,193.1,331.2,193,330.8,192.5z"/>
	<path class="st20" d="M330.8,192.5c-1-0.9-1.6-2.3-2.8-2.5c-1.3-0.4-2.5,0.9-3.6,1.6c-1.4,0.6-3,0.8-4.4,0.1
		c-0.4-0.3-0.6-0.6-0.9-1c-0.3-0.3-0.4-0.5-0.4-0.9c0-0.5,0.5-1,1-1s1,0.1,1.6,0.3c0.9,0.1,1.8-0.1,2.4-0.8c0.5-0.5,1-1.1,1.6-1.4
		c0.5-0.1,0.9,0,1.4,0.1l1.8,0.5c0.3,0,0.5,0,0.8,0s0.5-0.3,0.5-0.6s-0.3-0.6-0.5-0.8c-0.5-0.4-2.4-1.1-1-1.5c1-0.1,2,0,2.9,0.3
		c2,0.5,3.9,1.1,5.8,2c0.3,0.1,0.4,0.3,0.6,0.4l0,0c-1.8,0.1-3.6-0.3-5.3-1.1c0.9,0.9,1.8,1.9,2.4,2.9c0.4,0.5,0.5,1.3,0,1.5
		c-0.3,0-0.5,0-0.8-0.3l-3.6-2.3c0.9,1.1,1.5,2.5,1.8,3.9c0.1,0.3,0.1,0.5,0,0.6C332.1,193.1,331.2,193,330.8,192.5z"/>
	<path class="st7" d="M304.5,166.1l16.4,14.5l-5.4,9.8c0,0-31-14.5-32.6-21.6c-1.6-7,6.6-6.8,6.6-6.8S296.2,156.9,304.5,166.1z"/>
	<rect x="391.4" y="182.1" class="st1" width="66.5" height="66.5"/>
	<rect x="134.1" y="151.4" class="st0" width="48.8" height="66.5"/>
	<rect x="122.2" y="162.1" class="st7" width="48.8" height="66.5"/>
	<path class="st1" d="M98.8,348.4c0.4,3.4,1.5,6.6,3.4,9.5c7.6,13.4,16.1,26.6,27.8,36.5c17.3,14.6,39.9,20.9,61.7,26.9
		c-2-1-4.3-11-5.1-13.3c-1.8-4.4-3.3-8.8-4.9-13c-2.6-6.9-7.9-12.4-13.3-17.5c-11.9-11.5-26.3-20-42.2-24.8
		C117.3,350,108.1,348.5,98.8,348.4z"/>
	
		<linearGradient id="SVGID_13_" gradientUnits="userSpaceOnUse" x1="189.5323" y1="767.8963" x2="58.3915" y2="879.6015" gradientTransform="matrix(1.0333 0 0 1.0333 -4.1662 -448.2021)">
		<stop  offset="1.000000e-02" style="stop-color:#000000"/>
		<stop  offset="0.13" style="stop-color:#000000;stop-opacity:0.69"/>
		<stop  offset="0.25" style="stop-color:#000000;stop-opacity:0.32"/>
		<stop  offset="1" style="stop-color:#000000;stop-opacity:0"/>
	</linearGradient>
	<path class="st21" d="M98.8,348.4c0.4,3.4,1.5,6.6,3.4,9.5c7.6,13.4,16.1,26.6,27.8,36.5c17.3,14.6,39.9,20.9,61.7,26.9
		c-2-1-4.3-11-5.1-13.3c-1.8-4.4-3.3-8.8-4.9-13c-2.6-6.9-7.9-12.4-13.3-17.5c-11.9-11.5-26.3-20-42.2-24.8
		C117.3,350,108.1,348.5,98.8,348.4z"/>
	<path class="st1" d="M184.2,355.9c-1.8-12.5-3.6-25.1-8.6-36.7c-5-11.5-13.8-22.1-25.5-26.4c-0.4,17.9-0.8,35.7-1,53.5
		c-0.3,10.3-0.4,20.8,2.6,30.6c5.3,17.4,23.1,37.7,40.5,43.3c2.6-8.3-1.8-20.9-3-29.5L184.2,355.9z"/>
	<rect x="310.7" y="317.9" class="st7" width="54.8" height="5.6"/>
	<rect x="310.7" y="395.9" class="st7" width="54.8" height="5.6"/>
	<path class="st7" d="M407.5,204.3l16.8-8.8l16,8.8c0,0-3,21.5-15.6,27.6C424.7,231.9,408.9,225.9,407.5,204.3z"/>
</g>
</svg>
