<?xml version="1.0" encoding="utf-8"?>
<!-- Generator: Adobe Illustrator 24.2.3, SVG Export Plug-In . SVG Version: 6.00 Build 0)  -->
<svg version="1.1"
	 id="Layer_1" inkscape:version="0.91 r13725" sodipodi:docname="despegar.svg" xmlns:cc="http://creativecommons.org/ns#" xmlns:dc="http://purl.org/dc/elements/1.1/" xmlns:inkscape="http://www.inkscape.org/namespaces/inkscape" xmlns:rdf="http://www.w3.org/1999/02/22-rdf-syntax-ns#" xmlns:sodipodi="http://sodipodi.sourceforge.net/DTD/sodipodi-0.dtd" xmlns:svg="http://www.w3.org/2000/svg"
	 xmlns="http://www.w3.org/2000/svg" xmlns:xlink="http://www.w3.org/1999/xlink" x="0px" y="0px" viewBox="0 0 140.6 54.1"
	 style="enable-background:new 0 0 140.6 54.1;" xml:space="preserve">
<style type="text/css">
	.st0{fill:#0077D8;}
	.st1{fill:#FFFFFF;}
</style>
<g>
	<path class="st0" d="M52.5,19.2c0,0.9-0.2,1.7-0.6,2.3c-0.4,0.7-1.1,1.2-1.9,1.5s-1.8,0.5-3,0.5c-0.5,0-1,0-1.5-0.1s-1-0.2-1.4-0.3
		c-0.5-0.1-0.9-0.3-1.3-0.5v-3c0.7,0.3,1.5,0.6,2.2,0.9c0.8,0.3,1.5,0.4,2.3,0.4c0.5,0,0.9-0.1,1.3-0.2c0.3-0.1,0.5-0.3,0.7-0.6
		c0.1-0.2,0.2-0.5,0.2-0.8c0-0.4-0.1-0.7-0.4-1s-0.6-0.5-1-0.8c-0.4-0.2-0.9-0.5-1.5-0.8c-0.3-0.2-0.7-0.4-1.1-0.6
		c-0.4-0.2-0.8-0.5-1.2-0.9s-0.7-0.8-0.9-1.2S43,12.9,43,12.2c0-0.9,0.2-1.7,0.6-2.3c0.4-0.6,1-1.1,1.8-1.5c0.8-0.3,1.7-0.5,2.7-0.5
		c0.8,0,1.5,0.1,2.2,0.3s1.5,0.4,2.2,0.8l-1,2.5c-0.7-0.3-1.3-0.5-1.9-0.7c-0.5-0.2-1.1-0.2-1.7-0.2c-0.4,0-0.7,0.1-1,0.2
		c-0.3,0.1-0.5,0.3-0.6,0.5s-0.2,0.5-0.2,0.8c0,0.4,0.1,0.7,0.3,0.9s0.5,0.5,0.9,0.7s0.9,0.5,1.6,0.8c0.8,0.4,1.4,0.7,2,1.1
		c0.5,0.4,1,0.9,1.3,1.4C52.3,17.7,52.5,18.4,52.5,19.2z"/>
	<path class="st0" d="M64.6,11.9v11.5h-2.4l-0.4-1.5h-0.2c-0.2,0.4-0.6,0.7-0.9,1s-0.8,0.4-1.2,0.5s-0.9,0.2-1.4,0.2
		c-0.8,0-1.5-0.1-2.1-0.4s-1.1-0.7-1.4-1.4s-0.5-1.4-0.5-2.4v-7.5h3.1v6.7c0,0.8,0.1,1.4,0.4,1.9c0.3,0.4,0.8,0.6,1.4,0.6
		c0.6,0,1.1-0.1,1.5-0.4s0.6-0.7,0.8-1.3c0.1-0.6,0.2-1.3,0.2-2.1v-5.4C61.5,11.9,64.6,11.9,64.6,11.9z"/>
	<path class="st0" d="M73.6,11.7c1.2,0,2.2,0.3,3,1c0.7,0.7,1.1,1.7,1.1,3.2v7.5h-3.1v-6.7c0-0.8-0.1-1.4-0.4-1.9
		c-0.3-0.4-0.8-0.6-1.4-0.6c-1,0-1.6,0.3-2,1c-0.3,0.7-0.5,1.6-0.5,2.8v5.4h-3.1V11.9h2.4l0.4,1.5h0.2c0.2-0.4,0.6-0.7,0.9-1
		s0.8-0.4,1.2-0.5C72.7,11.7,73.1,11.7,73.6,11.7z"/>
	<path class="st0" d="M88.1,20c0,0.8-0.2,1.4-0.6,2c-0.4,0.5-0.9,0.9-1.6,1.2c-0.7,0.3-1.6,0.4-2.7,0.4c-0.8,0-1.5-0.1-2.1-0.2
		s-1.1-0.3-1.7-0.5v-2.6c0.6,0.3,1.3,0.5,2,0.7s1.3,0.3,1.9,0.3s1-0.1,1.3-0.3s0.4-0.4,0.4-0.7c0-0.2-0.1-0.4-0.2-0.5
		c-0.1-0.2-0.3-0.3-0.7-0.5c-0.3-0.2-0.9-0.5-1.6-0.8s-1.3-0.6-1.8-0.9s-0.8-0.7-1-1.1s-0.3-1-0.3-1.6c0-1.1,0.4-1.9,1.2-2.4
		s1.9-0.8,3.3-0.8c0.7,0,1.4,0.1,2,0.2c0.6,0.1,1.3,0.4,2,0.7L87,14.8c-0.6-0.2-1.1-0.4-1.6-0.6c-0.5-0.2-1-0.2-1.5-0.2
		s-0.8,0.1-1,0.2c-0.2,0.1-0.3,0.3-0.3,0.6c0,0.2,0.1,0.3,0.2,0.5c0.1,0.1,0.4,0.3,0.7,0.5c0.3,0.2,0.9,0.4,1.5,0.7
		c0.7,0.3,1.2,0.5,1.7,0.8s0.8,0.7,1.1,1.1C87.9,18.7,88.1,19.3,88.1,20z"/>
	<path class="st0" d="M92.8,7.4v3.3c0,0.6,0,1.1-0.1,1.6c0,0.5-0.1,0.9-0.1,1.1h0.2c0.2-0.4,0.5-0.7,0.9-1s0.7-0.4,1.1-0.5
		s0.9-0.2,1.3-0.2c0.8,0,1.6,0.1,2.2,0.4s1.1,0.7,1.4,1.4c0.3,0.6,0.5,1.4,0.5,2.4v7.5h-3.1v-6.7c0-0.8-0.2-1.4-0.5-1.9
		c-0.3-0.4-0.8-0.6-1.4-0.6s-1.1,0.1-1.5,0.4c-0.4,0.3-0.6,0.7-0.8,1.3c-0.2,0.6-0.2,1.3-0.2,2.1v5.4h-3.1v-16
		C89.6,7.4,92.8,7.4,92.8,7.4z"/>
	<path class="st0" d="M104.2,7.4c0.5,0,0.9,0.1,1.2,0.3s0.5,0.6,0.5,1.2s-0.2,1-0.5,1.2s-0.7,0.3-1.2,0.3s-0.9-0.1-1.2-0.3
		s-0.5-0.6-0.5-1.2c0-0.6,0.2-1,0.5-1.2S103.8,7.4,104.2,7.4z M105.8,11.9v11.5h-3.1V11.9H105.8z"/>
	<path class="st0" d="M114.8,11.7c1.2,0,2.2,0.3,3,1c0.7,0.7,1.1,1.7,1.1,3.2v7.5h-3.1v-6.7c0-0.8-0.1-1.4-0.4-1.9
		c-0.3-0.4-0.8-0.6-1.4-0.6c-1,0-1.6,0.3-2,1c-0.3,0.7-0.5,1.6-0.5,2.8v5.4h-3.1V11.9h2.4l0.4,1.5h0.2c0.2-0.4,0.6-0.7,0.9-1
		s0.8-0.4,1.2-0.5C113.8,11.7,114.3,11.7,114.8,11.7z"/>
	<path class="st0" d="M126,11.7c1.1,0,2,0.2,2.7,0.6c0.8,0.4,1.4,1,1.8,1.8c0.4,0.8,0.6,1.7,0.6,2.8v1.5h-7.4c0,0.9,0.3,1.6,0.8,2.1
		s1.2,0.8,2.1,0.8c0.7,0,1.4-0.1,2-0.2c0.6-0.2,1.2-0.4,1.9-0.7v2.4c-0.6,0.3-1.2,0.5-1.8,0.6s-1.4,0.2-2.3,0.2
		c-1.2,0-2.2-0.2-3.1-0.6s-1.6-1.1-2.1-1.9c-0.5-0.9-0.8-2-0.8-3.3s0.2-2.5,0.7-3.4s1.1-1.6,1.9-2C123.9,11.9,124.9,11.7,126,11.7z
		 M126,13.9c-0.6,0-1.1,0.2-1.5,0.6c-0.4,0.4-0.6,1-0.7,1.8h4.4c0-0.5-0.1-0.9-0.3-1.2c-0.2-0.4-0.4-0.7-0.7-0.9
		C126.9,14,126.5,13.9,126,13.9z"/>
	<path class="st0" d="M48,27.6c1.4,0,2.5,0.2,3.4,0.5s1.5,0.8,2,1.5c0.4,0.7,0.6,1.5,0.6,2.5c0,0.7-0.1,1.3-0.4,1.8
		c-0.3,0.5-0.6,0.9-1,1.3c-0.4,0.4-0.9,0.6-1.4,0.9l4.4,6.5h-3.5l-3.6-5.8h-1.7v5.8h-3.2v-15H48z M47.7,30.2h-1v4.1h1
		c1.1,0,1.8-0.2,2.3-0.5c0.5-0.4,0.7-0.9,0.7-1.6c0-0.7-0.2-1.2-0.7-1.5C49.5,30.4,48.8,30.2,47.7,30.2z"/>
	<path class="st0" d="M61.1,31c1.1,0,2,0.2,2.7,0.6s1.4,1,1.8,1.8s0.6,1.7,0.6,2.8v1.5h-7.4c0,0.9,0.3,1.6,0.8,2.1s1.2,0.8,2.1,0.8
		c0.7,0,1.4-0.1,2-0.2c0.6-0.2,1.2-0.4,1.9-0.7v2.4c-0.6,0.3-1.2,0.5-1.8,0.6c-0.6,0.1-1.4,0.2-2.3,0.2c-1.2,0-2.2-0.2-3.1-0.6
		c-0.9-0.4-1.6-1.1-2.1-1.9c-0.5-0.9-0.8-2-0.8-3.3s0.2-2.5,0.7-3.4s1.1-1.6,1.9-2C59.1,31.2,60,31,61.1,31z M61.2,33.2
		c-0.6,0-1.1,0.2-1.5,0.6c-0.4,0.4-0.6,1-0.7,1.8h4.3c0-0.5-0.1-0.9-0.3-1.2c-0.2-0.4-0.4-0.7-0.7-0.9
		C62.1,33.3,61.6,33.2,61.2,33.2z"/>
	<path class="st0" d="M72.7,30.9c1.5,0,2.7,0.3,3.5,1c0.8,0.7,1.2,1.7,1.2,3.1v7.7h-2.1l-0.6-1.6h-0.1c-0.3,0.4-0.7,0.7-1,1
		s-0.7,0.5-1.2,0.6c-0.4,0.1-1,0.2-1.6,0.2c-0.7,0-1.3-0.1-1.8-0.4c-0.5-0.3-1-0.7-1.3-1.2s-0.5-1.2-0.5-2c0-1.2,0.4-2.1,1.3-2.7
		c0.9-0.6,2.1-0.9,3.9-1l2-0.1V35c0-0.6-0.2-1-0.5-1.3s-0.8-0.4-1.3-0.4c-0.6,0-1.1,0.1-1.6,0.2c-0.5,0.2-1.1,0.4-1.6,0.6l-1-2.1
		c0.6-0.3,1.3-0.6,2-0.8S71.9,30.9,72.7,30.9z M74.4,37.3h-1.2c-1,0-1.7,0.2-2.1,0.5s-0.6,0.8-0.6,1.3s0.1,0.8,0.4,1
		s0.6,0.3,1.1,0.3c0.7,0,1.2-0.2,1.7-0.6c0.5-0.4,0.7-1,0.7-1.7V37.3z"/>
	<path class="st0" d="M83.5,42.9c-1.3,0-2.3-0.5-3.1-1.5s-1.2-2.5-1.2-4.4c0-2,0.4-3.5,1.2-4.5c0.8-1,1.9-1.5,3.2-1.5
		c0.5,0,1,0.1,1.4,0.2c0.4,0.2,0.8,0.4,1.1,0.6c0.3,0.2,0.6,0.5,0.8,0.9H87c0-0.2-0.1-0.5-0.1-1c-0.1-0.4-0.1-0.9-0.1-1.3v-3.7h3.1
		v16h-2.4l-0.6-1.5h-0.1c-0.2,0.3-0.4,0.6-0.7,0.9c-0.3,0.3-0.7,0.5-1.1,0.6C84.5,42.8,84,42.9,83.5,42.9z M84.6,40.4
		c0.9,0,1.5-0.3,1.8-0.8c0.4-0.5,0.5-1.3,0.6-2.3V37c0-1.1-0.2-2-0.5-2.6s-1-0.9-1.9-0.9c-0.7,0-1.2,0.3-1.6,0.9s-0.7,1.4-0.7,2.6
		c0,1.1,0.2,2,0.6,2.5C83.3,40.1,83.9,40.4,84.6,40.4z"/>
	<path class="st0" d="M90.7,31.2h3.4l2.2,6.5c0.1,0.2,0.1,0.4,0.2,0.6c0,0.2,0.1,0.4,0.1,0.7s0.1,0.5,0.1,0.7h0.1
		c0-0.4,0.1-0.7,0.2-1s0.2-0.6,0.3-1l2.1-6.5h3.4l-4.9,13c-0.3,0.8-0.7,1.5-1.2,2s-1,0.9-1.6,1.2s-1.3,0.4-2,0.4
		c-0.4,0-0.7,0-0.9-0.1c-0.3,0-0.5-0.1-0.7-0.1v-2.5c0.1,0,0.3,0.1,0.5,0.1s0.4,0,0.7,0c0.4,0,0.8-0.1,1.1-0.3
		c0.3-0.2,0.6-0.4,0.8-0.7c0.2-0.3,0.4-0.7,0.5-1l0.2-0.6L90.7,31.2z"/>
	<path class="st0" d="M21.5,16.3c-6.2,0-11.2,5-11.2,11.2s5,11.2,11.2,11.2s11.2-5,11.2-11.2S27.7,16.3,21.5,16.3z M17.3,36.2
		c-0.3-0.2-0.5-0.4-0.5-0.8c-0.2-1,0-1.6,0.9-2.2c0.4-0.3,0.5-0.6,0.8-1c0.1-0.1,0.3-0.5,0.5-0.5s0.7-0.1,0.8-0.3
		c0.2-0.3,0.6-1.4,0.8-1.5c0.3-0.2,0.7-0.8,0.4-1.2c-0.4-0.4-0.8-0.4-1.3-0.7c-0.4-0.2-0.6-1.1-0.9-1.4c-0.6-0.6-1.5-1-2.3-1.3
		c-0.4-0.2-0.4-0.2-0.7,0.1c-0.4,0.4-1-0.1-1.1-0.5c0-0.1-0.2-0.9-0.1-1c0.9-0.6-0.4-0.4-0.5-0.7c-0.3-0.8,0.7-1.3,1.3-1.4
		c0.7-0.1,0.8,1.1,1.1,1c0.1-0.1,0.1-0.6,0.1-0.7c0.1-0.4,0.2-0.5,0.6-0.6c0.5-0.2,0.8-0.4,1.3-0.5c0.6-0.2,1-0.1,1.4-0.4
		c0.2-0.1,0.3,0.1,0.5,0.1c0.4,0.1,0.5-0.6,0.5-0.8c0-0.2,0.1-0.4-0.2-0.7c-0.4-0.3-1,0-1.3,0.3c-0.4,0.4-0.8,0.3-0.7-0.3
		c0-0.2,0.5-0.5,0.7-0.6s0.3,0.1,0.5,0.1c0.3-0.1,0.5,0.2,0.8,0.2c0.2,0,0.7-0.3,0.4-1h0.1c0.1,0,0.2,0,0.3,0
		c0.1,0.4-0.3,0.8-0.1,1.4c0.4,1.1,0.8,0.2,1.2-0.4c0.1-0.1,0.2-0.1,0.5-0.2c0.1,0,0.4-0.5,0.4-0.6c1,0.2,2,0.7,2.8,1.2
		c-0.4,0-0.5-0.1-0.5,0.4c0,0.2,0,0.7,0.3,0.7c0.4,0,0.3,0.3,0.7,0.4c0.4,0,0.1,0.4,0.3,0.7c0.2,0.5-1,0.7-1.2,0.7
		c-0.7,0.2,0.3,1.2,0.8,1.1c0.1,0,0.6-0.1,0.6-0.3c0,0-0.1-0.6,0-0.6c0.1-0.1,0.3-0.1,0.5,0c0.7,0.4,1,1.3,1.8,1.5
		c0.1,0,0.3,0,0.4,0.1c0.1,0.2,0.4,0.4,0.1,0.4c-0.5-0.1-0.7,0-1.1-0.2c-0.4-0.3-0.6-0.5-1.1-0.6c-0.4,0-0.8-0.2-1.3-0.1
		c-0.3,0-0.5,0.1-0.7,0.2s-0.3,0.5-0.5,0.5c-1,0.2-0.8,1.2-0.9,1.9c-0.1,0.3-0.3,1.1,0,1.3c0.5,0.4,1,1.1,1.7,1.2
		c0.4,0.1,1.2-0.2,1.4,0.1c0.1,0.2,0.4-0.2,0.4,0c0.2,0.6-0.2,0.9-0.2,1.4c0,0.8,0.5,1-0.2,1.7s-0.2,1.5-0.6,2.4
		c-0.2,0.4-0.2,1-0.5,1.2c-0.7,0.4-1.4,0.8-2.1,1c-1.3,0.4-2.8,0.6-4.2,0.4c-0.7-0.1-1.5-0.3-2.2-0.5c-0.2-0.1-0.4-0.1-0.5-0.2
		C17.5,36.3,17.4,36.3,17.3,36.2z M15.2,34.9C15.2,34.8,15.2,34.8,15.2,34.9c-0.2-0.2-0.4-0.4-0.6-0.5c-0.2-0.2-0.3-0.3-0.5-0.5l0,0
		L14,33.8c-2.6-3.1-3-7.7-0.8-11.2c0.3,0.3-0.2,0.9,0.4,1.3c0.3,0.2,0.5,0.1,0.5,0.4s0.3,0.3,0.3,0.6c0.1,0.6,1,0.9,0.5,1.6
		c-0.5,0.6-0.9,1.3-0.5,2.1c0.1,0.3,0.4,0.6,0.6,0.8c0.4,0.4,0.4,0.2,0.4,0.7c0,0.2,0.3,0.4,0.2,0.6c-0.1,0.4-0.1,0.8-0.2,1.2
		c-0.1,1.4,0,2.8,1.1,3.9c-0.4-0.2-0.8-0.5-1.2-0.8C15.3,34.9,15.3,34.9,15.2,34.9L15.2,34.9z"/>
	<g>
		<g>
			<path class="st1" d="M25.9,20.5l-0.1-3c-9,0.3-14.7,8.4-14.7,8.4c3.1-10.8,14.6-12.5,14.6-12.5L25.6,10l6.5,5.1L25.9,20.5z"/>
			<path class="st0" d="M11.1,26.7c-0.1,0-0.2,0-0.3-0.1c-0.3-0.2-0.5-0.5-0.4-0.9c2.7-9.6,12-12.4,14.5-12.9L24.8,10
				c0-0.3,0.2-0.6,0.4-0.7c0.3-0.1,0.6-0.1,0.8,0.1l6.5,5.1c0.2,0.1,0.3,0.3,0.3,0.6c0,0.2-0.1,0.4-0.3,0.6l-6.2,5.4
				c-0.2,0.2-0.5,0.2-0.8,0.1s-0.4-0.4-0.4-0.7L25,18.3c-8.1,0.7-13.3,8-13.3,8.1C11.6,26.6,11.3,26.7,11.1,26.7z M26.4,11.6v1.8
				c0,0.4-0.3,0.7-0.6,0.8c-0.1,0-8,1.3-12.1,7.9c2.6-2.4,6.8-5.1,12.1-5.3c0.2,0,0.4,0.1,0.5,0.2s0.2,0.3,0.2,0.5v1.4l4.3-3.8
				L26.4,11.6z"/>
		</g>
	</g>
	<g>
		<g>
			<path class="st1" d="M16.2,34.3l-0.3,3c8.9,0.8,15.6-6.7,15.6-6.7C27.2,41,15.6,41.3,15.6,41.3l-0.3,3.4l-5.8-5.8L16.2,34.3z"/>
			<path class="st0" d="M15.2,45.5c-0.2,0-0.4-0.1-0.5-0.2l-5.8-5.8c-0.2-0.2-0.2-0.4-0.2-0.6c0-0.2,0.1-0.4,0.3-0.6l6.8-4.6
				c0.2-0.2,0.6-0.2,0.8,0c0.2,0.1,0.4,0.4,0.4,0.7l-0.2,2.2c0.2,0,0.3,0,0.5,0c7.8,0,13.7-6.4,13.7-6.5c0.2-0.3,0.7-0.3,1-0.1
				c0.3,0.2,0.4,0.6,0.3,0.9c-4,9.3-13.5,10.9-16.1,11.1l-0.3,2.8c0,0.3-0.2,0.5-0.5,0.6C15.4,45.5,15.3,45.5,15.2,45.5z M10.5,39.1
				l4.1,4l0.2-1.8c0-0.4,0.3-0.7,0.7-0.7c0.1,0,8.1-0.3,13-6.4c-2.9,2.1-7.3,4.3-12.7,3.9c-0.2,0-0.4-0.1-0.5-0.3s-0.2-0.4-0.2-0.6
				l0.2-1.4L10.5,39.1z"/>
		</g>
	</g>
</g>
</svg>
